# Blender 5.2.1 LTS
# www.blender.org
o barco_01
v -109.411301 54.687542 -0.100005
v -108.855629 54.964123 -0.470780
v -108.002487 54.665524 -0.470780
v -107.740570 54.102783 -0.100005
v -109.394028 55.778805 -0.100005
v -108.738121 55.831879 -0.470780
v -108.624199 57.978310 -0.100005
v -108.100487 57.653694 -0.470780
v -107.662804 59.013458 -0.100005
v -107.473717 58.570427 -0.470780
v -106.865204 59.282959 -0.100005
v -107.012085 58.863297 -0.470780
v -106.409752 58.574890 -0.100005
v -106.833855 58.346474 -0.470780
v -106.303726 57.166145 -0.100005
v -106.915565 57.238972 -0.470780
v -107.073555 54.966640 -0.100005
v -107.553200 55.417156 -0.470780
v -109.473267 54.681519 0.349995
v -107.695885 54.059437 0.349995
v -109.473267 55.789913 0.349995
v -108.695663 58.011635 0.349995
v -107.695885 59.047211 0.349995
v -106.856567 59.307640 0.349995
v -106.362854 58.580643 0.349995
v -106.227081 57.147633 0.349995
v -107.004684 54.925907 0.349995
v -108.597412 55.815880 0.349995
v -107.673172 55.492397 0.349995
v -108.611237 56.352749 0.349995
v -108.237984 57.419174 0.349995
v -107.735382 57.908302 0.349995
v -107.305847 58.023979 0.349995
v -107.042206 57.665688 0.349995
v -106.954323 56.969894 0.349995
v -107.327576 55.903465 0.349995
v -108.466080 55.991596 0.977695
v -107.666260 55.711658 0.977695
v -108.483360 56.441002 0.977695
v -108.172325 57.329689 0.977695
v -107.744026 57.733986 0.977695
v -107.374969 57.826492 0.977695
v -107.144157 57.524033 0.977695
v -107.061462 56.940887 0.977695
v -107.372498 56.052200 0.977695
vn -0.2116 -0.6045 -0.7680
vn -0.4951 0.0670 -0.8662
vn -0.5581 0.0088 -0.8298
vn -0.4952 0.1733 -0.8513
vn -0.5566 0.3805 -0.7385
vn -0.3830 0.3557 -0.8525
vn -0.4299 0.6776 -0.5967
vn -0.1956 0.5790 -0.7915
vn 0.5814 0.2005 -0.7885
vn 0.6111 0.3931 -0.6870
vn 0.5146 -0.0380 -0.8566
vn 0.6425 0.0484 -0.7647
vn 0.4952 -0.1733 -0.8513
vn 0.5025 -0.3003 -0.8108
vn 0.3899 -0.3011 -0.8702
vn -0.3298 -0.9423 -0.0580
vn -0.9847 0.0156 -0.1738
vn -0.9907 -0.0000 -0.1364
vn -0.9298 0.3254 -0.1718
vn -0.7287 0.6768 -0.1043
vn -0.7098 0.6852 -0.1635
vn -0.3198 0.9464 -0.0457
vn -0.2951 0.9509 -0.0930
vn 0.8373 0.5386 -0.0942
vn 0.8264 0.5612 -0.0467
vn 0.9836 0.0740 -0.1645
vn 0.9901 0.0938 -0.1044
vn 0.9298 -0.3254 -0.1718
vn 0.7841 -0.6055 -0.1362
vn 0.7699 -0.6142 -0.1734
vn -0.0000 -0.0000 1.0000
vn -0.3134 -0.8954 0.3162
vn -0.9789 -0.0252 0.2030
vn -0.9760 -0.0375 0.2147
vn -0.9340 0.3269 0.1443
vn -0.6853 0.7041 0.1861
vn -0.6761 0.7162 0.1728
vn -0.2507 0.9310 0.2653
vn -0.2350 0.9374 0.2571
vn 0.7787 0.5730 0.2558
vn 0.7658 0.5844 0.2682
vn 0.9772 0.1234 0.1725
vn 0.9722 0.1379 0.1890
vn 0.9340 -0.3269 0.1443
vn 0.7481 -0.6290 0.2115
vn 0.7412 -0.6394 0.2045
vn -0.0000 -0.0000 -1.0000
s 1
f 1//1 2//1 3//1
f 4//1 1//1 3//1
f 5//2 6//2 2//2
f 1//3 5//3 2//3
f 7//4 8//4 6//4
f 5//4 7//4 6//4
f 9//5 10//5 8//5
f 7//6 9//6 8//6
f 11//7 12//7 10//7
f 9//8 11//8 10//8
f 13//9 14//9 12//9
f 11//10 13//10 12//10
f 15//11 16//11 14//11
f 13//12 15//12 14//12
f 17//13 18//13 16//13
f 15//13 17//13 16//13
f 4//14 3//14 18//14
f 17//15 4//15 18//15
f 19//16 1//16 4//16
f 20//16 19//16 4//16
f 21//17 5//17 1//17
f 19//18 21//18 1//18
f 22//19 7//19 5//19
f 21//19 22//19 5//19
f 23//20 9//20 7//20
f 22//21 23//21 7//21
f 24//22 11//22 9//22
f 23//23 24//23 9//23
f 25//24 13//24 11//24
f 24//25 25//25 11//25
f 26//26 15//26 13//26
f 25//27 26//27 13//27
f 27//28 17//28 15//28
f 26//28 27//28 15//28
f 20//29 4//29 17//29
f 27//30 20//30 17//30
f 28//31 19//31 20//31
f 29//31 28//31 20//31
f 30//31 21//31 19//31
f 28//31 30//31 19//31
f 31//31 22//31 21//31
f 30//31 31//31 21//31
f 32//31 23//31 22//31
f 31//31 32//31 22//31
f 33//31 24//31 23//31
f 32//31 33//31 23//31
f 34//31 25//31 24//31
f 33//31 34//31 24//31
f 35//31 26//31 25//31
f 34//31 35//31 25//31
f 36//31 27//31 26//31
f 35//31 36//31 26//31
f 29//31 20//31 27//31
f 36//31 29//31 27//31
f 37//32 28//32 29//32
f 38//32 37//32 29//32
f 39//33 30//33 28//33
f 37//34 39//34 28//34
f 40//35 31//35 30//35
f 39//35 40//35 30//35
f 41//36 32//36 31//36
f 40//37 41//37 31//37
f 42//38 33//38 32//38
f 41//39 42//39 32//39
f 43//40 34//40 33//40
f 42//41 43//41 33//41
f 44//42 35//42 34//42
f 43//43 44//43 34//43
f 45//44 36//44 35//44
f 44//44 45//44 35//44
f 38//45 29//45 36//45
f 45//46 38//46 36//46
f 3//47 2//47 18//47
f 37//31 38//31 45//31
f 2//47 6//47 18//47
f 39//31 37//31 45//31
f 6//47 8//47 18//47
f 40//31 39//31 45//31
f 8//47 10//47 18//47
f 41//31 40//31 45//31
f 10//47 12//47 18//47
f 42//31 41//31 45//31
f 12//47 14//47 18//47
f 43//31 42//31 45//31
f 16//47 18//47 14//47
f 45//31 44//31 43//31
o barco_02
v -104.534874 50.906689 -0.100004
v -103.959167 51.240494 -0.534976
v -103.106026 50.941895 -0.534976
v -102.864136 50.321930 -0.100004
v -104.470940 52.131252 -0.100004
v -103.803024 52.218662 -0.534976
v -103.596138 54.630695 -0.100005
v -103.078438 54.288906 -0.534976
v -102.576424 55.832474 -0.100005
v -102.403358 55.343655 -0.534976
v -101.755501 56.168621 -0.100005
v -101.922409 55.691734 -0.534976
v -101.323372 55.393906 -0.100005
v -101.763496 55.119705 -0.534976
v -101.275665 53.818531 -0.100005
v -101.893517 53.874184 -0.534976
v -102.150475 51.319088 -0.100004
v -102.618103 51.803944 -0.534976
v -104.598015 50.897301 0.386364
v -102.820633 50.275215 0.386364
v -104.550888 52.140343 0.386364
v -103.667252 54.665028 0.386364
v -102.608566 55.868912 0.386364
v -101.745682 56.196674 0.386364
v -101.275528 55.402351 0.386364
v -101.198669 53.801025 0.386364
v -102.082306 51.276337 0.386364
v -103.660896 52.206707 0.386364
v -102.736664 51.883224 0.386364
v -103.652100 52.808205 0.386364
v -103.227951 54.020058 0.386364
v -102.697075 54.589970 0.386364
v -102.256226 54.737965 0.386364
v -102.003891 54.347359 0.386364
v -101.944290 53.570774 0.386364
v -102.368439 52.358925 0.386364
v -103.520142 52.409351 1.099659
v -102.720322 52.129414 1.099659
v -103.518570 52.912617 1.099659
v -103.165115 53.922489 1.099659
v -102.713257 54.394108 1.099659
v -102.334778 54.513550 1.099659
v -102.113388 54.184155 1.099659
v -102.054253 53.533688 1.099659
v -102.407707 52.523815 1.099659
vn -0.2155 -0.6158 -0.7578
vn -0.5517 0.0881 -0.8294
vn -0.6143 0.0321 -0.7884
vn -0.5531 0.1936 -0.8103
vn -0.6134 0.3926 -0.6853
vn -0.4399 0.3732 -0.8168
vn -0.4886 0.6751 -0.5527
vn -0.2437 0.5951 -0.7658
vn 0.6342 0.1762 -0.7528
vn 0.6591 0.3677 -0.6560
vn 0.5710 -0.0596 -0.8188
vn 0.6961 0.0211 -0.7176
vn 0.5531 -0.1936 -0.8103
vn 0.5610 -0.3175 -0.7645
vn 0.4463 -0.3194 -0.8359
vn -0.3297 -0.9421 -0.0610
vn -0.9853 0.0514 -0.1629
vn -0.9911 0.0376 -0.1279
vn -0.9318 0.3261 -0.1593
vn -0.7588 0.6438 -0.0984
vn -0.7419 0.6524 -0.1545
vn -0.3785 0.9245 -0.0456
vn -0.3535 0.9308 -0.0931
vn 0.8695 0.4850 -0.0939
vn 0.8596 0.5088 -0.0467
vn 0.9874 0.0299 -0.1553
vn 0.9940 0.0477 -0.0986
vn 0.9318 -0.3261 -0.1593
vn 0.8065 -0.5772 -0.1276
vn 0.7941 -0.5856 -0.1628
vn -0.0000 -0.0000 1.0000
vn -0.3134 -0.8954 0.3162
vn -0.9832 0.0144 0.1820
vn -0.9812 0.0031 0.1928
vn -0.9362 0.3277 0.1273
vn -0.7213 0.6719 0.1681
vn -0.7132 0.6833 0.1563
vn -0.3078 0.9168 0.2546
vn -0.2916 0.9241 0.2471
vn 0.8143 0.5260 0.2454
vn 0.8019 0.5390 0.2579
vn 0.9849 0.0756 0.1558
vn 0.9812 0.0892 0.1710
vn 0.9362 -0.3277 0.1273
vn 0.7760 -0.6017 0.1892
vn 0.7764 -0.6010 0.1896
vn 0.7710 -0.6096 0.1842
vn 0.7704 -0.6106 0.1836
vn -0.0000 -0.0000 -1.0000
s 1
f 46//48 47//48 48//48
f 49//48 46//48 48//48
f 50//49 51//49 47//49
f 46//50 50//50 47//50
f 52//51 53//51 51//51
f 50//51 52//51 51//51
f 54//52 55//52 53//52
f 52//53 54//53 53//53
f 56//54 57//54 55//54
f 54//55 56//55 55//55
f 58//56 59//56 57//56
f 56//57 58//57 57//57
f 60//58 61//58 59//58
f 58//59 60//59 59//59
f 62//60 63//60 61//60
f 60//60 62//60 61//60
f 49//61 48//61 63//61
f 62//62 49//62 63//62
f 64//63 46//63 49//63
f 65//63 64//63 49//63
f 66//64 50//64 46//64
f 64//65 66//65 46//65
f 67//66 52//66 50//66
f 66//66 67//66 50//66
f 68//67 54//67 52//67
f 67//68 68//68 52//68
f 69//69 56//69 54//69
f 68//70 69//70 54//70
f 70//71 58//71 56//71
f 69//72 70//72 56//72
f 71//73 60//73 58//73
f 70//74 71//74 58//74
f 72//75 62//75 60//75
f 71//75 72//75 60//75
f 65//76 49//76 62//76
f 72//77 65//77 62//77
f 73//78 64//78 65//78
f 74//78 73//78 65//78
f 75//78 66//78 64//78
f 73//78 75//78 64//78
f 76//78 67//78 66//78
f 75//78 76//78 66//78
f 77//78 68//78 67//78
f 76//78 77//78 67//78
f 78//78 69//78 68//78
f 77//78 78//78 68//78
f 79//78 70//78 69//78
f 78//78 79//78 69//78
f 80//78 71//78 70//78
f 79//78 80//78 70//78
f 81//78 72//78 71//78
f 80//78 81//78 71//78
f 74//78 65//78 72//78
f 81//78 74//78 72//78
f 82//79 73//79 74//79
f 83//79 82//79 74//79
f 84//80 75//80 73//80
f 82//81 84//81 73//81
f 85//82 76//82 75//82
f 84//82 85//82 75//82
f 86//83 77//83 76//83
f 85//84 86//84 76//84
f 87//85 78//85 77//85
f 86//86 87//86 77//86
f 88//87 79//87 78//87
f 87//88 88//88 78//88
f 89//89 80//89 79//89
f 88//90 89//90 79//90
f 90//91 81//91 80//91
f 89//91 90//91 80//91
f 83//92 74//93 81//94
f 90//95 83//92 81//94
f 48//96 47//96 63//96
f 82//78 83//78 90//78
f 47//96 51//96 63//96
f 84//78 82//78 90//78
f 51//96 53//96 63//96
f 85//78 84//78 90//78
f 53//96 55//96 63//96
f 86//78 85//78 90//78
f 55//96 57//96 63//96
f 87//78 86//78 90//78
f 57//96 59//96 63//96
f 88//78 87//78 90//78
f 61//96 63//96 59//96
f 90//78 89//78 88//78
o barco_03
v -101.230995 49.491165 -0.100004
v -100.703918 49.745636 -0.450004
v -99.889557 49.460609 -0.450004
v -99.636200 48.932987 -0.100004
v -101.222275 50.510609 -0.100004
v -100.598190 50.555546 -0.450004
v -100.504944 52.560146 -0.100004
v -100.004036 52.253147 -0.450004
v -99.596970 53.520473 -0.100005
v -99.413803 53.105206 -0.450004
v -98.839516 53.766613 -0.100005
v -98.976379 53.375565 -0.450005
v -98.400871 53.101841 -0.100005
v -98.803024 52.891438 -0.450004
v -98.289948 51.784901 -0.100004
v -98.872971 51.857277 -0.450004
v -99.007286 49.735359 -0.100004
v -99.467133 50.159676 -0.450004
v -101.289948 49.485977 0.349996
v -99.593353 48.892170 0.349996
v -101.297798 50.521549 0.349996
v -100.573212 52.591789 0.349996
v -99.628700 53.552238 0.349995
v -98.831459 53.789616 0.349995
v -98.356262 53.106884 0.349995
v -98.216843 51.767059 0.349996
v -98.941429 49.696815 0.349996
v -100.464111 50.539604 0.349996
v -99.581886 50.230824 0.349996
v -100.481079 51.041298 0.349996
v -100.133278 52.035011 0.349996
v -99.658234 52.488441 0.349996
v -99.250114 52.593475 0.349996
v -98.996567 52.256855 0.349996
v -98.907967 51.606152 0.349996
v -99.255768 50.612434 0.349996
v -100.340324 50.702843 0.934898
v -99.576859 50.435631 0.934898
v -100.359962 51.122845 0.934898
v -100.070129 51.950939 0.934898
v -99.665222 52.325634 0.934898
v -99.314522 52.409451 0.934898
v -99.092628 52.125225 0.934898
v -99.009758 51.579811 0.934898
v -99.299591 50.751713 0.934898
vn -0.2132 -0.6091 -0.7639
vn -0.4917 0.0642 -0.8684
vn -0.5548 0.0047 -0.8320
vn -0.4913 0.1719 -0.8539
vn -0.5514 0.3819 -0.7417
vn -0.3779 0.3573 -0.8542
vn -0.4217 0.6822 -0.5973
vn -0.1893 0.5826 -0.7904
vn 0.5784 0.2071 -0.7890
vn 0.6076 0.4009 -0.6856
vn 0.5112 -0.0346 -0.8587
vn 0.6394 0.0539 -0.7670
vn 0.4913 -0.1719 -0.8539
vn 0.4977 -0.3007 -0.8136
vn 0.3852 -0.3019 -0.8721
vn -0.3299 -0.9425 -0.0541
vn -0.9861 0.0084 -0.1657
vn -0.9915 -0.0075 -0.1300
vn -0.9311 0.3259 -0.1642
vn -0.7231 0.6836 -0.0992
vn -0.7043 0.6926 -0.1556
vn -0.3088 0.9502 -0.0430
vn -0.2843 0.9547 -0.0874
vn 0.8314 0.5486 -0.0886
vn 0.8200 0.5707 -0.0439
vn 0.9842 0.0829 -0.1566
vn 0.9897 0.1030 -0.0993
vn 0.9311 -0.3259 -0.1642
vn 0.7804 -0.6117 -0.1298
vn 0.7663 -0.6209 -0.1653
vn -0.0000 -0.0000 1.0000
vn -0.3134 -0.8954 0.3162
vn -0.9778 -0.0331 0.2071
vn -0.9747 -0.0456 0.2190
vn -0.9335 0.3267 0.1478
vn -0.9335 0.3267 0.1477
vn -0.6779 0.7103 0.1896
vn -0.6686 0.7225 0.1760
vn -0.2402 0.9332 0.2672
vn -0.2245 0.9395 0.2588
vn 0.7718 0.5813 0.2576
vn 0.7590 0.5925 0.2700
vn 0.9754 0.1328 0.1757
vn 0.9702 0.1474 0.1925
vn 0.9335 -0.3267 0.1477
vn 0.9335 -0.3267 0.1478
vn 0.7423 -0.6344 0.2157
vn 0.7352 -0.6449 0.2087
vn -0.0000 -0.0000 -1.0000
s 1
f 91//97 92//97 93//97
f 94//97 91//97 93//97
f 95//98 96//98 92//98
f 91//99 95//99 92//99
f 97//100 98//100 96//100
f 95//100 97//100 96//100
f 99//101 100//101 98//101
f 97//102 99//102 98//102
f 101//103 102//103 100//103
f 99//104 101//104 100//104
f 103//105 104//105 102//105
f 101//106 103//106 102//106
f 105//107 106//107 104//107
f 103//108 105//108 104//108
f 107//109 108//109 106//109
f 105//109 107//109 106//109
f 94//110 93//110 108//110
f 107//111 94//111 108//111
f 109//112 91//112 94//112
f 110//112 109//112 94//112
f 111//113 95//113 91//113
f 109//114 111//114 91//114
f 112//115 97//115 95//115
f 111//115 112//115 95//115
f 113//116 99//116 97//116
f 112//117 113//117 97//117
f 114//118 101//118 99//118
f 113//119 114//119 99//119
f 115//120 103//120 101//120
f 114//121 115//121 101//121
f 116//122 105//122 103//122
f 115//123 116//123 103//123
f 117//124 107//124 105//124
f 116//124 117//124 105//124
f 110//125 94//125 107//125
f 117//126 110//126 107//126
f 118//127 109//127 110//127
f 119//127 118//127 110//127
f 120//127 111//127 109//127
f 118//127 120//127 109//127
f 121//127 112//127 111//127
f 120//127 121//127 111//127
f 122//127 113//127 112//127
f 121//127 122//127 112//127
f 123//127 114//127 113//127
f 122//127 123//127 113//127
f 124//127 115//127 114//127
f 123//127 124//127 114//127
f 125//127 116//127 115//127
f 124//127 125//127 115//127
f 126//127 117//127 116//127
f 125//127 126//127 116//127
f 119//127 110//127 117//127
f 126//127 119//127 117//127
f 127//128 118//128 119//128
f 128//128 127//128 119//128
f 129//129 120//129 118//129
f 127//130 129//130 118//130
f 130//131 121//131 120//131
f 129//132 130//131 120//131
f 131//133 122//133 121//133
f 130//134 131//134 121//134
f 132//135 123//135 122//135
f 131//136 132//136 122//136
f 133//137 124//137 123//137
f 132//138 133//138 123//138
f 134//139 125//139 124//139
f 133//140 134//140 124//140
f 135//141 126//141 125//142
f 134//142 135//141 125//142
f 128//143 119//143 126//143
f 135//144 128//144 126//144
f 93//145 92//145 108//145
f 127//127 128//127 135//127
f 92//145 96//145 108//145
f 129//127 127//127 135//127
f 96//145 98//145 108//145
f 130//127 129//127 135//127
f 98//145 100//145 108//145
f 131//127 130//127 135//127
f 100//145 102//145 108//145
f 132//127 131//127 135//127
f 102//145 104//145 108//145
f 133//127 132//127 135//127
f 106//145 108//145 104//145
f 135//127 134//127 133//127
o barco_04
v -96.869492 48.781807 -0.100004
v -96.230904 48.914425 -0.450004
v -95.275452 48.436695 -0.450004
v -94.998390 47.846256 -0.100004
v -96.812241 49.805866 -0.100004
v -96.067917 49.704849 -0.450004
v -95.864822 51.700699 -0.100004
v -95.283188 51.274307 -0.450004
v -94.740768 52.454529 -0.100004
v -94.542015 51.993622 -0.450004
v -93.828568 52.524769 -0.100004
v -94.009331 52.163242 -0.450004
v -93.337448 51.752865 -0.100004
v -93.825424 51.635326 -0.450004
v -93.266075 50.401325 -0.100004
v -93.956169 50.610798 -0.450004
v -94.213486 48.506493 -0.100004
v -94.740898 49.041340 -0.450004
v -96.939835 48.790398 0.349996
v -94.949310 47.795132 0.349996
v -96.901558 49.834576 0.349996
v -95.944572 51.748547 0.349996
v -94.777046 52.493935 0.349996
v -93.817932 52.546036 0.349996
v -93.284149 51.747486 0.349996
v -93.179947 50.366234 0.349996
v -94.136932 48.452263 0.349996
v -95.909187 49.657383 0.349996
v -94.874107 49.139847 0.349996
v -95.906296 50.166332 0.349996
v -95.446938 51.085037 0.349996
v -94.861092 51.430107 0.349996
v -94.370865 51.440186 0.349996
v -94.084785 51.041954 0.349996
v -94.009331 50.366234 0.349996
v -94.468689 49.447529 0.349996
v -95.754448 49.792683 0.920632
v -94.858711 49.344810 0.920632
v -95.758492 50.220028 0.920632
v -95.375694 50.985619 0.920632
v -94.876892 51.267876 0.920632
v -94.455925 51.270054 0.920632
v -94.205093 50.931973 0.920632
v -94.131615 50.363575 0.920632
v -94.514412 49.597988 0.920632
vn -0.2928 -0.5855 -0.7560
vn -0.2927 -0.5855 -0.7560
vn -0.4145 0.0855 -0.9061
vn -0.4848 0.0271 -0.8742
vn -0.3951 0.1975 -0.8972
vn -0.4164 0.4291 -0.8015
vn -0.2555 0.3809 -0.8886
vn -0.2338 0.7341 -0.6375
vn -0.0456 0.5916 -0.8049
vn 0.5419 0.1888 -0.8190
vn 0.5995 0.3814 -0.7036
vn 0.4381 -0.0559 -0.8972
vn 0.5777 0.0305 -0.8157
vn 0.3951 -0.1975 -0.8972
vn 0.3781 -0.3343 -0.8633
vn 0.2726 -0.3240 -0.9059
vn -0.4466 -0.8932 -0.0528
vn -0.9787 0.0547 -0.1978
vn -0.9872 0.0362 -0.1550
vn -0.8760 0.4380 -0.2018
vn -0.5532 0.8248 -0.1168
vn -0.5291 0.8288 -0.1819
vn -0.0767 0.9960 -0.0453
vn -0.0540 0.9943 -0.0914
vn 0.8400 0.5345 -0.0931
vn 0.8305 0.5551 -0.0459
vn 0.9816 0.0518 -0.1838
vn 0.9904 0.0747 -0.1164
vn 0.8760 -0.4380 -0.2018
vn 0.6359 -0.7560 -0.1553
vn 0.6166 -0.7623 -0.1968
vn -0.0000 -0.0000 1.0000
vn -0.4243 -0.8485 0.3162
vn -0.9682 0.0055 0.2502
vn -0.9646 -0.0091 0.2637
vn -0.8788 0.4394 0.1863
vn -0.4945 0.8395 0.2250
vn -0.4817 0.8512 0.2084
vn -0.0197 0.9589 0.2829
vn -0.0050 0.9619 0.2733
vn 0.7813 0.5613 0.2729
vn 0.7698 0.5711 0.2850
vn 0.9719 0.1085 0.2088
vn 0.9657 0.1248 0.2277
vn 0.8788 -0.4394 0.1863
vn 0.5837 -0.7691 0.2605
vn 0.5734 -0.7797 0.2515
vn -0.0000 -0.0000 -1.0000
s 1
f 136//146 137//146 138//147
f 139//147 136//146 138//147
f 140//148 141//148 137//148
f 136//149 140//149 137//149
f 142//150 143//150 141//150
f 140//150 142//150 141//150
f 144//151 145//151 143//151
f 142//152 144//152 143//152
f 146//153 147//153 145//153
f 144//154 146//154 145//154
f 148//155 149//155 147//155
f 146//156 148//156 147//156
f 150//157 151//157 149//157
f 148//158 150//158 149//158
f 152//159 153//159 151//159
f 150//159 152//159 151//159
f 139//160 138//160 153//160
f 152//161 139//161 153//161
f 154//162 136//162 139//162
f 155//162 154//162 139//162
f 156//163 140//163 136//163
f 154//164 156//164 136//164
f 157//165 142//165 140//165
f 156//165 157//165 140//165
f 158//166 144//166 142//166
f 157//167 158//167 142//167
f 159//168 146//168 144//168
f 158//169 159//169 144//169
f 160//170 148//170 146//170
f 159//171 160//171 146//171
f 161//172 150//172 148//172
f 160//173 161//173 148//173
f 162//174 152//174 150//174
f 161//174 162//174 150//174
f 155//175 139//175 152//175
f 162//176 155//176 152//176
f 163//177 154//177 155//177
f 164//177 163//177 155//177
f 165//177 156//177 154//177
f 163//177 165//177 154//177
f 166//177 157//177 156//177
f 165//177 166//177 156//177
f 167//177 158//177 157//177
f 166//177 167//177 157//177
f 168//177 159//177 158//177
f 167//177 168//177 158//177
f 169//177 160//177 159//177
f 168//177 169//177 159//177
f 170//177 161//177 160//177
f 169//177 170//177 160//177
f 171//177 162//177 161//177
f 170//177 171//177 161//177
f 164//177 155//177 162//177
f 171//177 164//177 162//177
f 172//178 163//178 164//178
f 173//178 172//178 164//178
f 174//179 165//179 163//179
f 172//180 174//180 163//180
f 175//181 166//181 165//181
f 174//181 175//181 165//181
f 176//182 167//182 166//182
f 175//183 176//183 166//183
f 177//184 168//184 167//184
f 176//185 177//185 167//185
f 178//186 169//186 168//186
f 177//187 178//187 168//187
f 179//188 170//188 169//188
f 178//189 179//189 169//189
f 180//190 171//190 170//190
f 179//190 180//190 170//190
f 173//191 164//191 171//191
f 180//192 173//192 171//192
f 138//193 137//193 153//193
f 172//177 173//177 180//177
f 137//193 141//193 153//193
f 174//177 172//177 180//177
f 141//193 143//193 153//193
f 175//177 174//177 180//177
f 143//193 145//193 153//193
f 176//177 175//177 180//177
f 145//193 147//193 153//193
f 177//177 176//177 180//177
f 147//193 149//193 153//193
f 178//177 177//177 180//177
f 151//193 153//193 149//193
f 180//177 179//177 178//177
o barco_05
v -85.055542 35.870117 -0.100003
v -84.560905 36.205551 -0.524275
v -83.912407 35.946148 -0.524275
v -83.785553 35.362122 -0.100003
v -84.874123 37.039795 -0.100003
v -84.332199 37.143002 -0.524275
v -83.910309 39.449329 -0.100003
v -83.533890 39.138775 -0.524276
v -82.969162 40.625683 -0.100004
v -82.883224 40.164677 -0.524276
v -82.278740 40.970638 -0.100004
v -82.462631 40.510906 -0.524276
v -82.016678 40.244690 -0.100004
v -82.396851 39.970127 -0.524276
v -82.146439 38.743782 -0.100003
v -82.633194 38.778496 -0.524276
v -83.110252 36.334248 -0.100003
v -83.431503 36.782722 -0.524275
v -85.106888 35.859287 0.378638
v -83.755844 35.318867 0.378638
v -84.936905 37.046089 0.378638
v -83.963356 39.479961 0.378637
v -82.990906 40.659477 0.378637
v -82.267921 40.997681 0.378637
v -81.977623 40.254162 0.378637
v -82.086899 38.729378 0.378638
v -83.060448 36.295506 0.378638
v -84.220139 37.135822 0.378638
v -83.517593 36.854805 0.378638
v -84.149055 37.709690 0.378638
v -83.681755 38.877949 0.378638
v -83.197716 39.437214 0.378637
v -82.830414 39.591442 0.378637
v -82.670807 39.226448 0.378638
v -82.705994 38.487648 0.378638
v -83.173302 37.319389 0.378638
v -84.086319 37.333252 1.077667
v -83.478348 37.090065 1.077667
v -84.031464 37.813229 1.077667
v -83.642044 38.786777 1.077667
v -83.231483 39.249950 1.077667
v -82.916954 39.375099 1.077667
v -82.775505 39.067558 1.077667
v -82.797638 38.449013 1.077667
v -83.187057 37.475464 1.077667
vn -0.2417 -0.6041 -0.7594
vn -0.6271 0.1530 -0.7638
vn -0.6880 0.1067 -0.7178
vn -0.6259 0.2504 -0.7386
vn -0.6746 0.4279 -0.6015
vn -0.5124 0.4099 -0.7546
vn -0.5543 0.6733 -0.4893
vn -0.3063 0.6131 -0.7282
vn 0.7134 0.0868 -0.6954
vn 0.7432 0.2683 -0.6129
vn 0.6464 -0.1282 -0.7521
vn 0.7640 -0.0661 -0.6418
vn 0.6259 -0.2504 -0.7386
vn 0.6300 -0.3622 -0.6869
vn 0.5194 -0.3608 -0.7746
vn -0.3707 -0.9268 -0.0607
vn -0.9797 0.1520 -0.1305
vn -0.9847 0.1410 -0.1025
vn -0.9211 0.3684 -0.1257
vn -0.7784 0.6227 -0.0793
vn -0.7655 0.6311 -0.1252
vn -0.4466 0.8938 -0.0404
vn -0.4223 0.9027 -0.0829
vn 0.9373 0.3384 -0.0832
vn 0.9307 0.3634 -0.0416
vn 0.9884 -0.0855 -0.1255
vn 0.9943 -0.0713 -0.0797
vn 0.9211 -0.3684 -0.1257
vn 0.8170 -0.5675 -0.1020
vn 0.8076 -0.5751 -0.1306
vn -0.0000 -0.0000 1.0000
vn -0.3523 -0.8808 0.3162
vn -0.9816 0.1210 0.1476
vn -0.9816 0.1216 0.1471
vn -0.9814 0.1132 0.1552
vn -0.9813 0.1122 0.1562
vn -0.9238 0.3695 0.1007
vn -0.7489 0.6482 0.1375
vn -0.7422 0.6579 0.1280
vn -0.3767 0.8971 0.2310
vn -0.3602 0.9053 0.2251
vn 0.8932 0.3906 0.2226
vn 0.8831 0.4062 0.2350
vn 0.9907 -0.0472 0.1273
vn 0.9895 -0.0354 0.1402
vn 0.9238 -0.3695 0.1007
vn 0.7935 -0.5890 0.1530
vn 0.7939 -0.5884 0.1534
vn 0.7895 -0.5954 0.1492
vn 0.7889 -0.5963 0.1487
vn -0.0000 -0.0000 -1.0000
s 1
f 181//194 182//194 183//194
f 184//194 181//194 183//194
f 185//195 186//195 182//195
f 181//196 185//196 182//196
f 187//197 188//197 186//197
f 185//197 187//197 186//197
f 189//198 190//198 188//198
f 187//199 189//199 188//199
f 191//200 192//200 190//200
f 189//201 191//201 190//201
f 193//202 194//202 192//202
f 191//203 193//203 192//203
f 195//204 196//204 194//204
f 193//205 195//205 194//205
f 197//206 198//206 196//206
f 195//206 197//206 196//206
f 184//207 183//207 198//207
f 197//208 184//208 198//208
f 199//209 181//209 184//209
f 200//209 199//209 184//209
f 201//210 185//210 181//210
f 199//211 201//211 181//211
f 202//212 187//212 185//212
f 201//212 202//212 185//212
f 203//213 189//213 187//213
f 202//214 203//214 187//214
f 204//215 191//215 189//215
f 203//216 204//216 189//216
f 205//217 193//217 191//217
f 204//218 205//218 191//218
f 206//219 195//219 193//219
f 205//220 206//220 193//220
f 207//221 197//221 195//221
f 206//221 207//221 195//221
f 200//222 184//222 197//222
f 207//223 200//223 197//223
f 208//224 199//224 200//224
f 209//224 208//224 200//224
f 210//224 201//224 199//224
f 208//224 210//224 199//224
f 211//224 202//224 201//224
f 210//224 211//224 201//224
f 212//224 203//224 202//224
f 211//224 212//224 202//224
f 213//224 204//224 203//224
f 212//224 213//224 203//224
f 214//224 205//224 204//224
f 213//224 214//224 204//224
f 215//224 206//224 205//224
f 214//224 215//224 205//224
f 216//224 207//224 206//224
f 215//224 216//224 206//224
f 209//224 200//224 207//224
f 216//224 209//224 207//224
f 217//225 208//225 209//225
f 218//225 217//225 209//225
f 219//226 210//227 208//228
f 217//229 219//226 208//228
f 220//230 211//230 210//230
f 219//230 220//230 210//230
f 221//231 212//231 211//231
f 220//232 221//232 211//232
f 222//233 213//233 212//233
f 221//234 222//234 212//234
f 223//235 214//235 213//235
f 222//236 223//236 213//236
f 224//237 215//237 214//237
f 223//238 224//238 214//238
f 225//239 216//239 215//239
f 224//239 225//239 215//239
f 218//240 209//241 216//242
f 225//243 218//240 216//242
f 183//244 182//244 198//244
f 217//224 218//224 225//224
f 182//244 186//244 198//244
f 219//224 217//224 225//224
f 186//244 188//244 198//244
f 220//224 219//224 225//224
f 188//244 190//244 198//244
f 221//224 220//224 225//224
f 190//244 192//244 198//244
f 222//224 221//224 225//224
f 192//244 194//244 198//244
f 223//224 222//224 225//224
f 196//244 198//244 194//244
f 225//224 224//224 223//224
o barco_06
v -56.291283 39.039799 -0.100003
v -55.131634 40.116867 -1.508623
v -53.791912 39.594376 -1.508623
v -53.667660 38.016586 -0.100003
v -55.595501 42.330883 -0.100004
v -54.393284 42.779617 -1.508623
v -52.882160 49.288170 -0.100004
v -52.145870 48.542221 -1.508624
v -50.536644 52.826469 -0.100004
v -50.469337 51.576759 -1.508624
v -48.949821 53.988831 -0.100005
v -49.467522 52.661400 -1.508624
v -48.568924 52.059063 -0.100004
v -49.464546 51.184887 -1.508624
v -49.238235 47.867043 -0.100004
v -50.285141 47.816536 -1.508624
v -51.951580 40.909756 -0.100004
v -52.532558 42.053936 -1.508623
v -56.405468 38.994370 1.089555
v -53.614380 37.905846 1.089555
v -55.730068 42.329388 1.089555
v -52.989319 49.356953 1.089555
v -50.575081 52.913429 1.089554
v -48.919365 54.066914 1.089554
v -48.481766 52.097038 1.089554
v -49.112808 47.845112 1.089555
v -51.853554 40.817551 1.089555
v -54.152061 42.793495 1.089555
v -52.700695 42.227463 1.089555
v -53.849579 44.402767 1.089555
v -52.534019 47.776001 1.089555
v -51.339520 49.469200 1.089554
v -50.502914 50.006546 1.089554
v -50.250999 49.044674 1.089555
v -50.518234 46.989841 1.089555
v -51.833794 43.616611 1.089555
v -53.810753 43.380066 2.889555
v -52.554760 42.890232 2.889555
v -53.567726 44.724659 2.889555
v -52.471428 47.535683 2.889555
v -51.461151 48.940887 2.889555
v -50.746536 49.381870 2.889555
v -50.519157 48.573513 2.889555
v -50.726997 46.855354 2.889555
v -51.823296 44.044331 2.889555
vn -0.2555 -0.6550 -0.7111
vn -0.7756 0.2151 -0.5934
vn -0.8213 0.1736 -0.5434
vn -0.7706 0.3005 -0.5620
vn -0.7919 0.4375 -0.4260
vn -0.6738 0.4466 -0.5887
vn -0.6891 0.6365 -0.3465
vn -0.4741 0.6473 -0.5969
vn 0.8434 0.0017 -0.5373
vn 0.8621 0.1702 -0.4772
vn 0.7909 -0.1927 -0.5809
vn 0.8725 -0.1393 -0.4683
vn 0.7706 -0.3005 -0.5620
vn 0.7670 -0.3927 -0.5075
vn 0.6818 -0.4044 -0.6097
vn -0.3624 -0.9294 -0.0703
vn -0.9725 0.2056 -0.1097
vn -0.9765 0.1978 -0.0862
vn -0.9266 0.3614 -0.1044
vn -0.8316 0.5513 -0.0672
vn -0.8227 0.5585 -0.1064
vn -0.5905 0.8061 -0.0378
vn -0.5699 0.8180 -0.0782
vn 0.9781 0.1931 -0.0778
vn 0.9755 0.2167 -0.0392
vn 0.9819 -0.1568 -0.1064
vn 0.9869 -0.1465 -0.0676
vn 0.9266 -0.3614 -0.1044
vn 0.8569 -0.5083 -0.0857
vn 0.8505 -0.5143 -0.1100
vn -0.0000 -0.0000 1.0000
vn -0.3405 -0.8731 0.3491
vn -0.9757 0.1831 0.1202
vn -0.9757 0.1834 0.1200
vn -0.9760 0.1770 0.1269
vn -0.9760 0.1764 0.1276
vn -0.9286 0.3622 0.0806
vn -0.8075 0.5802 0.1059
vn -0.8119 0.5727 0.1132
vn -0.8075 0.5804 0.1057
vn -0.8074 0.5805 0.1056
vn -0.5279 0.8219 0.2138
vn -0.5135 0.8321 0.2095
vn 0.9466 0.2479 0.2059
vn 0.9393 0.2642 0.2188
vn 0.9861 -0.1196 0.1153
vn 0.9862 -0.1283 0.1048
vn 0.9861 -0.1195 0.1154
vn 0.9861 -0.1193 0.1157
vn 0.9286 -0.3622 0.0806
vn 0.8415 -0.5256 0.1249
vn 0.8417 -0.5253 0.1252
vn 0.8387 -0.5308 0.1217
vn 0.8384 -0.5314 0.1214
vn -0.0000 -0.0000 -1.0000
s 1
f 226//245 227//245 228//245
f 229//245 226//245 228//245
f 230//246 231//246 227//246
f 226//247 230//247 227//247
f 232//248 233//248 231//248
f 230//248 232//248 231//248
f 234//249 235//249 233//249
f 232//250 234//250 233//250
f 236//251 237//251 235//251
f 234//252 236//252 235//252
f 238//253 239//253 237//253
f 236//254 238//254 237//254
f 240//255 241//255 239//255
f 238//256 240//256 239//256
f 242//257 243//257 241//257
f 240//257 242//257 241//257
f 229//258 228//258 243//258
f 242//259 229//259 243//259
f 244//260 226//260 229//260
f 245//260 244//260 229//260
f 246//261 230//261 226//261
f 244//262 246//262 226//262
f 247//263 232//263 230//263
f 246//263 247//263 230//263
f 248//264 234//264 232//264
f 247//265 248//265 232//265
f 249//266 236//266 234//266
f 248//267 249//267 234//267
f 250//268 238//268 236//268
f 249//269 250//269 236//269
f 251//270 240//270 238//270
f 250//271 251//271 238//271
f 252//272 242//272 240//272
f 251//272 252//272 240//272
f 245//273 229//273 242//273
f 252//274 245//274 242//274
f 253//275 244//275 245//275
f 254//275 253//275 245//275
f 255//275 246//275 244//275
f 253//275 255//275 244//275
f 256//275 247//275 246//275
f 255//275 256//275 246//275
f 257//275 248//275 247//275
f 256//275 257//275 247//275
f 258//275 249//275 248//275
f 257//275 258//275 248//275
f 259//275 250//275 249//275
f 258//275 259//275 249//275
f 260//275 251//275 250//275
f 259//275 260//275 250//275
f 261//275 252//275 251//275
f 260//275 261//275 251//275
f 254//275 245//275 252//275
f 261//275 254//275 252//275
f 262//276 253//276 254//276
f 263//276 262//276 254//276
f 264//277 255//278 253//279
f 262//280 264//277 253//279
f 265//281 256//281 255//281
f 264//281 265//281 255//281
f 266//282 257//283 256//284
f 265//285 266//282 256//284
f 267//286 258//286 257//286
f 266//287 267//287 257//287
f 268//288 259//288 258//288
f 267//289 268//289 258//289
f 269//290 260//291 259//292
f 268//293 269//290 259//292
f 270//294 261//294 260//294
f 269//294 270//294 260//294
f 263//295 254//296 261//297
f 270//298 263//295 261//297
f 228//299 227//299 243//299
f 262//275 263//275 270//275
f 227//299 231//299 243//299
f 264//275 262//275 270//275
f 231//299 233//299 243//299
f 265//275 264//275 270//275
f 233//299 235//299 243//299
f 266//275 265//275 270//275
f 235//299 237//299 243//299
f 267//275 266//275 270//275
f 237//299 239//299 243//299
f 268//275 267//275 270//275
f 241//299 243//299 239//299
f 270//275 269//275 268//275
o barco_07
v -43.975494 39.839870 -0.100004
v -44.732460 39.180847 -0.888056
v -45.840256 39.491032 -0.888056
v -46.144928 40.447315 -0.100004
v -44.080444 37.840401 -0.100003
v -44.953377 37.562237 -0.888056
v -45.265701 33.607342 -0.100003
v -45.935104 34.056068 -0.888056
v -46.617188 31.449688 -0.100003
v -46.834389 32.207283 -0.888056
v -47.694115 30.736801 -0.100003
v -47.467972 31.544456 -0.888056
v -48.244263 31.905270 -0.100003
v -47.665237 32.439922 -0.888056
v -48.278801 34.451012 -0.100003
v -47.473709 34.486877 -0.888056
v -47.093544 38.684071 -0.100003
v -46.491982 37.993046 -0.888056
v -43.892960 39.867996 0.641368
v -46.200867 40.514210 0.641368
v -43.976295 37.841980 0.641368
v -45.173523 33.566166 0.641368
v -46.575905 31.397141 0.641369
v -47.707420 30.689293 0.641369
v -48.306831 31.881802 0.641369
v -48.378952 34.463684 0.641368
v -47.181725 38.739498 0.641368
v -45.138588 37.552616 0.641368
v -46.338699 37.888645 0.641368
v -45.160637 36.575104 0.641368
v -45.735306 34.522713 0.641368
v -46.437943 33.489838 0.641368
v -47.015686 33.159763 0.641369
v -47.338028 33.741859 0.641368
v -47.402130 34.989422 0.641368
v -46.827461 37.041813 0.641368
v -45.325783 37.195160 1.825438
v -46.364342 37.485958 1.825438
v -45.336685 36.378471 1.825439
v -45.815575 34.668144 1.825439
v -46.413383 33.810860 1.825439
v -46.909264 33.539833 1.825439
v -47.192307 34.028957 1.825439
v -47.258018 35.072029 1.825439
v -46.779129 36.782356 1.825438
vn 0.1846 0.6594 -0.7288
vn 0.6834 -0.0933 -0.7241
vn 0.7366 -0.0387 -0.6752
vn 0.6907 -0.1934 -0.6968
vn 0.7476 -0.3637 -0.5557
vn 0.5927 -0.3712 -0.7148
vn 0.6464 -0.6179 -0.4477
vn 0.3994 -0.6034 -0.6902
vn -0.7391 -0.1628 -0.6536
vn -0.7425 -0.3496 -0.5714
vn -0.6995 0.0654 -0.7116
vn -0.8023 -0.0109 -0.5969
vn -0.6907 0.1934 -0.6968
vn -0.7026 0.3057 -0.6426
vn -0.5960 0.3207 -0.7362
vn 0.2690 0.9608 -0.0664
vn 0.9890 -0.0519 -0.1388
vn 0.9932 -0.0409 -0.1090
vn 0.9543 -0.2672 -0.1335
vn 0.8444 -0.5289 -0.0845
vn 0.8323 -0.5381 -0.1334
vn 0.5515 -0.8331 -0.0435
vn 0.5282 -0.8444 -0.0893
vn -0.9011 -0.4243 -0.0895
vn -0.8926 -0.4487 -0.0448
vn -0.9909 -0.0134 -0.1336
vn -0.9960 -0.0278 -0.0849
vn -0.9543 0.2672 -0.1335
vn -0.8754 0.4710 -0.1086
vn -0.8667 0.4790 -0.1389
vn -0.0000 -0.0000 1.0000
vn 0.2558 0.9135 0.3162
vn 0.2558 0.9136 0.3162
vn 0.9894 -0.0217 0.1439
vn 0.9894 -0.0223 0.1434
vn 0.9884 -0.0141 0.1513
vn 0.9883 -0.0132 0.1523
vn 0.9583 -0.2683 0.0979
vn 0.8194 -0.5574 0.1341
vn 0.8138 -0.5675 0.1249
vn 0.4830 -0.8454 0.2280
vn 0.4676 -0.8555 0.2223
vn -0.8535 -0.4726 0.2196
vn -0.8419 -0.4872 0.2320
vn -0.9910 -0.0509 0.1242
vn -0.9886 -0.0623 0.1368
vn -0.9583 0.2683 0.0979
vn -0.8560 0.4949 0.1492
vn -0.8564 0.4943 0.1495
vn -0.8528 0.5016 0.1454
vn -0.8524 0.5025 0.1449
vn -0.0000 -0.0000 -1.0000
s 1
f 271//300 272//300 273//300
f 274//300 271//300 273//300
f 275//301 276//301 272//301
f 271//302 275//302 272//302
f 277//303 278//303 276//303
f 275//303 277//303 276//303
f 279//304 280//304 278//304
f 277//305 279//305 278//305
f 281//306 282//306 280//306
f 279//307 281//307 280//307
f 283//308 284//308 282//308
f 281//309 283//309 282//309
f 285//310 286//310 284//310
f 283//311 285//311 284//311
f 287//312 288//312 286//312
f 285//312 287//312 286//312
f 274//313 273//313 288//313
f 287//314 274//314 288//314
f 289//315 271//315 274//315
f 290//315 289//315 274//315
f 291//316 275//316 271//316
f 289//317 291//317 271//317
f 292//318 277//318 275//318
f 291//318 292//318 275//318
f 293//319 279//319 277//319
f 292//320 293//320 277//320
f 294//321 281//321 279//321
f 293//322 294//322 279//322
f 295//323 283//323 281//323
f 294//324 295//324 281//324
f 296//325 285//325 283//325
f 295//326 296//326 283//326
f 297//327 287//327 285//327
f 296//327 297//327 285//327
f 290//328 274//328 287//328
f 297//329 290//329 287//329
f 298//330 289//330 290//330
f 299//330 298//330 290//330
f 300//330 291//330 289//330
f 298//330 300//330 289//330
f 301//330 292//330 291//330
f 300//330 301//330 291//330
f 302//330 293//330 292//330
f 301//330 302//330 292//330
f 303//330 294//330 293//330
f 302//330 303//330 293//330
f 304//330 295//330 294//330
f 303//330 304//330 294//330
f 305//330 296//330 295//330
f 304//330 305//330 295//330
f 306//330 297//330 296//330
f 305//330 306//330 296//330
f 299//330 290//330 297//330
f 306//330 299//330 297//330
f 307//331 298//331 299//331
f 308//332 307//331 299//331
f 309//333 300//334 298//335
f 307//336 309//333 298//335
f 310//337 301//337 300//337
f 309//337 310//337 300//337
f 311//338 302//338 301//338
f 310//339 311//339 301//339
f 312//340 303//340 302//340
f 311//341 312//341 302//341
f 313//342 304//342 303//342
f 312//343 313//343 303//343
f 314//344 305//344 304//344
f 313//345 314//345 304//345
f 315//346 306//346 305//346
f 314//346 315//346 305//346
f 308//347 299//348 306//349
f 315//350 308//347 306//349
f 273//351 272//351 288//351
f 307//330 308//330 315//330
f 272//351 276//351 288//351
f 309//330 307//330 315//330
f 276//351 278//351 288//351
f 310//330 309//330 315//330
f 278//351 280//351 288//351
f 311//330 310//330 315//330
f 280//351 282//351 288//351
f 312//330 311//330 315//330
f 282//351 284//351 288//351
f 313//330 312//330 315//330
f 286//351 288//351 284//351
f 315//330 314//330 313//330
o barco_08
v -37.478683 25.150274 -0.100002
v -36.389862 25.871822 -1.187639
v -35.130508 25.267332 -1.187639
v -35.012451 23.966482 -0.100002
v -36.827583 27.735954 -0.100003
v -35.698250 27.940384 -1.187639
v -34.283646 33.035831 -0.100003
v -33.591148 32.330177 -1.187640
v -32.082520 35.602051 -0.100003
v -32.018242 34.575855 -1.187640
v -30.592361 36.335880 -0.100003
v -31.077736 35.324680 -1.187640
v -30.232849 34.714207 -0.100003
v -31.073730 34.122486 -1.187640
v -30.858322 31.391678 -0.100003
v -31.842049 31.490608 -1.187640
v -33.402260 26.091801 -0.100002
v -33.949150 27.100815 -1.187639
v -37.585945 25.128572 0.857735
v -34.962288 23.869219 0.857735
v -36.954041 27.752739 0.857735
v -34.384399 33.106152 0.857735
v -32.118713 35.677975 0.857735
v -30.563812 36.395363 0.857735
v -30.150970 34.733459 0.857735
v -30.740440 31.357048 0.857735
v -33.310074 26.003639 0.857735
v -35.471588 27.919407 0.857735
v -34.107285 27.264545 0.857735
v -35.188675 29.188805 0.857735
v -33.955254 31.758442 0.857735
v -32.834198 32.976826 0.857735
v -32.048492 33.302280 0.857735
v -31.810974 32.485676 0.857735
v -32.060394 30.848907 0.857735
v -33.293816 28.279270 0.857735
v -35.151344 28.351189 2.441251
v -33.970703 27.784481 2.441251
v -34.924095 29.413101 2.441251
v -33.896240 31.554466 2.441251
v -32.948059 32.563080 2.441251
v -32.276901 32.826424 2.441251
v -32.062576 32.138046 2.441251
v -32.256454 30.767368 2.441251
v -33.284309 28.626003 2.441251
vn -0.3012 -0.6276 -0.7179
vn -0.6962 0.2328 -0.6791
vn -0.7540 0.1899 -0.6289
vn -0.6853 0.3289 -0.6497
vn -0.7055 0.4942 -0.5079
vn -0.5626 0.4826 -0.6713
vn -0.5681 0.7136 -0.4099
vn -0.3329 0.6760 -0.6575
vn 0.7904 0.0026 -0.6125
vn 0.8235 0.1825 -0.5372
vn 0.7157 -0.2089 -0.6664
vn 0.8205 -0.1545 -0.5503
vn 0.6853 -0.3289 -0.6497
vn 0.6760 -0.4356 -0.5943
vn 0.5747 -0.4354 -0.6929
vn -0.4317 -0.8994 -0.0687
vn -0.9613 0.2421 -0.1312
vn -0.9670 0.2329 -0.1030
vn -0.8944 0.4293 -0.1256
vn -0.7566 0.6490 -0.0800
vn -0.7443 0.6557 -0.1264
vn -0.4414 0.8963 -0.0425
vn -0.4173 0.9045 -0.0875
vn 0.9726 0.2156 -0.0875
vn 0.9696 0.2409 -0.0439
vn 0.9748 -0.1835 -0.1266
vn 0.9819 -0.1714 -0.0805
vn 0.8944 -0.4293 -0.1256
vn 0.7929 -0.6007 -0.1025
vn 0.7839 -0.6068 -0.1313
vn -0.0000 -0.0000 1.0000
vn -0.4105 -0.8553 0.3162
vn -0.9677 0.2151 0.1317
vn -0.9676 0.2156 0.1311
vn -0.9683 0.2081 0.1384
vn -0.9683 0.2072 0.1393
vn -0.8979 0.4310 0.0890
vn -0.7271 0.6762 0.1189
vn -0.7303 0.6719 0.1231
vn -0.7241 0.6800 0.1150
vn -0.7238 0.6804 0.1146
vn -0.3736 0.9018 0.2171
vn -0.3570 0.9097 0.2120
vn 0.9390 0.2731 0.2091
vn 0.9311 0.2899 0.2214
vn 0.9822 -0.1497 0.1139
vn 0.9823 -0.1389 0.1256
vn 0.8979 -0.4310 0.0890
vn 0.7725 -0.6202 0.1364
vn 0.7729 -0.6196 0.1368
vn 0.7686 -0.6257 0.1331
vn 0.7681 -0.6265 0.1326
vn -0.0000 -0.0000 -1.0000
s 1
f 316//352 317//352 318//352
f 319//352 316//352 318//352
f 320//353 321//353 317//353
f 316//354 320//354 317//354
f 322//355 323//355 321//355
f 320//355 322//355 321//355
f 324//356 325//356 323//356
f 322//357 324//357 323//357
f 326//358 327//358 325//358
f 324//359 326//359 325//359
f 328//360 329//360 327//360
f 326//361 328//361 327//361
f 330//362 331//362 329//362
f 328//363 330//363 329//363
f 332//364 333//364 331//364
f 330//364 332//364 331//364
f 319//365 318//365 333//365
f 332//366 319//366 333//366
f 334//367 316//367 319//367
f 335//367 334//367 319//367
f 336//368 320//368 316//368
f 334//369 336//369 316//369
f 337//370 322//370 320//370
f 336//370 337//370 320//370
f 338//371 324//371 322//371
f 337//372 338//372 322//372
f 339//373 326//373 324//373
f 338//374 339//374 324//374
f 340//375 328//375 326//375
f 339//376 340//376 326//376
f 341//377 330//377 328//377
f 340//378 341//378 328//378
f 342//379 332//379 330//379
f 341//379 342//379 330//379
f 335//380 319//380 332//380
f 342//381 335//381 332//381
f 343//382 334//382 335//382
f 344//382 343//382 335//382
f 345//382 336//382 334//382
f 343//382 345//382 334//382
f 346//382 337//382 336//382
f 345//382 346//382 336//382
f 347//382 338//382 337//382
f 346//382 347//382 337//382
f 348//382 339//382 338//382
f 347//382 348//382 338//382
f 349//382 340//382 339//382
f 348//382 349//382 339//382
f 350//382 341//382 340//382
f 349//382 350//382 340//382
f 351//382 342//382 341//382
f 350//382 351//382 341//382
f 344//382 335//382 342//382
f 351//382 344//382 342//382
f 352//383 343//383 344//383
f 353//383 352//383 344//383
f 354//384 345//385 343//386
f 352//387 354//384 343//386
f 355//388 346//388 345//388
f 354//388 355//388 345//388
f 356//389 347//390 346//391
f 355//392 356//389 346//391
f 357//393 348//393 347//393
f 356//394 357//394 347//394
f 358//395 349//395 348//395
f 357//396 358//396 348//396
f 359//397 350//397 349//397
f 358//398 359//398 349//398
f 360//399 351//399 350//399
f 359//399 360//399 350//399
f 353//400 344//401 351//402
f 360//403 353//400 351//402
f 318//404 317//404 333//404
f 352//382 353//382 360//382
f 317//404 321//404 333//404
f 354//382 352//382 360//382
f 321//404 323//404 333//404
f 355//382 354//382 360//382
f 323//404 325//404 333//404
f 356//382 355//382 360//382
f 325//404 327//404 333//404
f 357//382 356//382 360//382
f 327//404 329//404 333//404
f 358//382 357//382 360//382
f 331//404 333//404 329//404
f 360//382 359//382 358//382
o costa
v -114.615761 54.342525 -12.000005
v -91.433655 28.307243 -12.000003
v -114.615761 42.097622 -12.000004
v -114.615761 54.342525 1.499995
v -114.615761 42.097622 1.499996
v -91.433655 28.307243 1.499997
v 0.700333 -6.644234 -12.000000
v -63.139606 13.803568 -12.000002
v -63.139606 13.803568 1.499998
v 0.700333 -6.644233 1.500000
v 12.926163 17.431433 -12.000002
v 4.980110 -0.105693 -12.000001
v 4.980110 -0.105692 1.500000
v 12.926163 17.431433 1.499998
v 8.069397 25.455654 -12.000003
v 10.972900 24.663790 -12.000002
v 10.972900 24.663790 1.499998
v 8.069397 25.455654 1.499998
v 5.588226 21.390753 -12.000002
v 5.588226 21.390753 1.499998
v 4.374031 17.748178 -12.000002
v 4.374031 17.748178 1.499998
v 9.178009 15.425377 -12.000002
v 9.178009 15.425377 1.499998
v -0.007614 -0.147949 -12.000001
v -0.007614 -0.147948 1.500000
v -33.213112 19.120743 -12.000002
v -29.614723 31.279308 -12.000003
v -27.237068 29.971600 -12.000003
v -33.213112 19.120743 1.499998
v -27.237068 29.971600 1.499997
v -29.614723 31.279308 1.499997
v -34.726669 20.817640 -12.000002
v -34.726669 20.817640 1.499998
v -45.782753 26.524002 -12.000003
v -45.782753 26.524002 1.499997
v -42.810684 37.936729 -12.000004
v -40.551918 36.866787 -12.000003
v -40.551918 36.866787 1.499997
v -42.810684 37.936729 1.499997
v -47.922638 27.712830 -12.000003
v -47.922638 27.712830 1.499997
v -60.524189 34.251369 -12.000003
v -60.524189 34.251369 1.499997
v -52.559059 54.818054 -12.000005
v -50.181404 53.510349 -12.000005
v -50.181404 53.510349 1.499995
v -52.559059 54.818054 1.499995
v -62.782959 35.559078 -12.000003
v -62.782959 35.559078 1.499997
v -72.055801 40.314381 -12.000004
v -72.055801 40.314381 1.499996
v -60.167542 31.517071 -12.000003
v -73.363510 38.055614 -12.000004
v -73.363510 38.055614 1.499997
v -60.167542 31.517071 1.499997
v -65.873901 21.174288 -12.000002
v -65.873901 21.174288 1.499998
v -87.748299 32.943665 -12.000003
v -87.748299 32.943665 1.499997
v -95.000137 48.517281 -12.000004
v -81.685287 43.286446 -12.000004
v -81.685287 43.286446 1.499996
v -95.000137 48.517281 1.499996
v -96.664490 45.426334 -12.000004
v -96.664490 45.426334 1.499996
vn -0.0000 -0.0000 -1.0000
vn -0.0000 -0.0000 1.0000
vn -0.5113 -0.8594 -0.0000
vn -0.4562 -0.8899 -0.0000
vn -0.3050 -0.9523 -0.0000
vn 0.8367 -0.5477 -0.0000
vn 0.9109 -0.4127 -0.0000
vn 0.9654 0.2607 -0.0000
vn 0.2631 0.9648 -0.0000
vn -0.8536 0.5210 -0.0000
vn -0.9487 0.3162 -0.0000
vn -0.4353 -0.9003 -0.0000
vn -0.8613 0.5080 -0.0000
vn 0.5019 0.8649 -0.0000
vn 0.8759 -0.4824 -0.0000
vn 0.4819 0.8762 -0.0000
vn -0.8985 0.4390 -0.0000
vn 0.4586 0.8886 -0.0000
vn 0.8924 -0.4513 -0.0000
vn 0.4281 0.9037 -0.0000
vn -0.8944 0.4472 -0.0000
vn 0.4606 0.8876 -0.0000
vn 0.8810 -0.4731 -0.0000
vn -0.8833 0.4689 -0.0000
vn 0.4563 0.8898 -0.0000
vn -0.8654 0.5010 -0.0000
vn -0.4440 -0.8960 -0.0000
vn -0.8756 0.4831 -0.0000
vn 0.4738 0.8806 -0.0000
vn 0.8627 -0.5057 -0.0000
vn 0.3657 0.9308 -0.0000
vn -0.8805 0.4741 -0.0000
vn 0.4448 0.8956 -0.0000
vn -1.0000 -0.0000 -0.0000
s 1
f 361//405 362//405 363//405
f 364//406 365//406 366//406
f 362//405 367//405 368//405
f 366//406 369//406 370//406
f 367//405 371//405 372//405
f 370//406 373//406 374//406
f 371//405 375//405 376//405
f 374//406 377//406 378//406
f 371//405 379//405 375//405
f 374//406 378//406 380//406
f 371//405 381//405 379//405
f 374//406 380//406 382//406
f 371//405 383//405 381//405
f 374//406 382//406 384//406
f 367//405 383//405 371//405
f 370//406 374//406 384//406
f 367//405 385//405 383//405
f 370//406 384//406 386//406
f 362//405 385//405 367//405
f 366//406 370//406 386//406
f 387//405 388//405 389//405
f 390//406 391//406 392//406
f 387//405 393//405 388//405
f 390//406 392//406 394//406
f 387//405 395//405 393//405
f 390//406 394//406 396//406
f 395//405 397//405 398//405
f 396//406 399//406 400//406
f 395//405 401//405 397//405
f 396//406 400//406 402//406
f 387//405 401//405 395//405
f 390//406 396//406 402//406
f 387//405 403//405 401//405
f 390//406 402//406 404//406
f 385//405 403//405 387//405
f 386//406 390//406 404//406
f 403//405 405//405 406//405
f 404//406 407//406 408//406
f 403//405 409//405 405//405
f 404//406 408//406 410//406
f 403//405 411//405 409//405
f 404//406 410//406 412//406
f 385//405 411//405 403//405
f 386//406 404//406 412//406
f 411//405 413//405 414//405
f 412//406 415//406 416//406
f 385//405 413//405 411//405
f 386//406 412//406 416//406
f 385//405 417//405 413//405
f 386//406 416//406 418//406
f 362//405 417//405 385//405
f 366//406 386//406 418//406
f 362//405 419//405 417//405
f 366//406 418//406 420//406
f 361//405 419//405 362//405
f 364//406 366//406 420//406
f 419//405 421//405 422//405
f 420//406 423//406 424//406
f 419//405 425//405 421//405
f 420//406 424//406 426//406
f 419//405 361//405 425//405
f 420//406 426//406 364//406
f 363//407 362//407 366//407
f 363//407 366//407 365//407
f 362//408 368//408 369//408
f 362//408 369//408 366//408
f 368//409 367//409 370//409
f 368//409 370//409 369//409
f 367//410 372//410 373//410
f 367//410 373//410 370//410
f 372//411 371//411 374//411
f 372//411 374//411 373//411
f 371//412 376//412 377//412
f 371//412 377//412 374//412
f 376//413 375//413 378//413
f 376//413 378//413 377//413
f 375//414 379//414 380//414
f 375//414 380//414 378//414
f 379//415 381//415 382//415
f 379//415 382//415 380//415
f 381//416 383//416 384//416
f 381//416 384//416 382//416
f 383//417 385//417 386//417
f 383//417 386//417 384//417
f 385//418 387//418 390//418
f 385//418 390//418 386//418
f 387//419 389//419 391//419
f 387//419 391//419 390//419
f 389//420 388//420 392//420
f 389//420 392//420 391//420
f 388//421 393//421 394//421
f 388//421 394//421 392//421
f 393//422 395//422 396//422
f 393//422 396//422 394//422
f 395//423 398//423 399//423
f 395//423 399//423 396//423
f 398//424 397//424 400//424
f 398//424 400//424 399//424
f 397//425 401//425 402//425
f 397//425 402//425 400//425
f 401//426 403//426 404//426
f 401//426 404//426 402//426
f 403//427 406//427 407//427
f 403//427 407//427 404//427
f 406//420 405//420 408//420
f 406//420 408//420 407//420
f 405//428 409//428 410//428
f 405//428 410//428 408//428
f 409//429 411//429 412//429
f 409//429 412//429 410//429
f 411//430 414//430 415//430
f 411//430 415//430 412//430
f 414//431 413//431 416//431
f 414//431 416//431 415//431
f 413//432 417//432 418//432
f 413//432 418//432 416//432
f 417//433 419//433 420//433
f 417//433 420//433 418//433
f 419//434 422//434 423//434
f 419//434 423//434 420//434
f 422//435 421//435 424//435
f 422//435 424//435 423//435
f 421//436 425//436 426//436
f 421//436 426//436 424//436
f 425//437 361//437 364//437
f 425//437 364//437 426//437
f 361//438 363//438 365//438
f 361//438 365//438 364//438
o fondo
v -119.615761 83.355766 -13.000007
v 50.384239 -16.644234 -12.999999
v -119.615761 -16.644234 -12.999999
v -119.615761 83.355766 -12.000007
v -119.615761 -16.644234 -11.999999
v 50.384239 -16.644234 -11.999999
v 50.384239 83.355766 -13.000007
v 50.384239 83.355766 -12.000007
vn -0.0000 -0.0000 -1.0000
vn -0.0000 -0.0000 1.0000
vn -0.0000 -1.0000 -0.0000
vn 1.0000 -0.0000 -0.0000
vn -0.0000 1.0000 -0.0000
vn -1.0000 -0.0000 -0.0000
s 1
f 427//439 428//439 429//439
f 430//440 431//440 432//440
f 428//439 427//439 433//439
f 432//440 434//440 430//440
f 429//441 428//441 432//441
f 429//441 432//441 431//441
f 428//442 433//442 434//442
f 428//442 434//442 432//442
f 433//443 427//443 430//443
f 433//443 430//443 434//443
f 427//444 429//444 431//444
f 427//444 431//444 430//444
