# Blender 5.2.1 LTS
# www.blender.org
o barco_01
v 5.204457 61.331776 -0.100005
v 5.760135 61.608356 -0.470780
v 6.613277 61.309757 -0.470780
v 6.875194 60.747017 -0.100005
v 5.221737 62.423038 -0.100005
v 5.877639 62.476112 -0.470780
v 5.991564 64.622543 -0.100005
v 6.515274 64.297928 -0.470780
v 6.952954 65.657692 -0.100005
v 7.142047 65.214661 -0.470780
v 7.750553 65.927193 -0.100005
v 7.603673 65.507530 -0.470780
v 8.206007 65.219124 -0.100005
v 7.781904 64.990707 -0.470780
v 8.312033 63.810379 -0.100005
v 7.700194 63.883205 -0.470780
v 7.542205 61.610874 -0.100005
v 7.062559 62.061390 -0.470780
v 5.142495 61.325752 0.349995
v 6.919875 60.703671 0.349995
v 5.142495 62.434147 0.349995
v 5.920099 64.655869 0.349995
v 6.919875 65.691444 0.349995
v 7.759193 65.951874 0.349995
v 8.252910 65.224876 0.349995
v 8.388681 63.791866 0.349995
v 7.611078 61.570141 0.349995
v 6.018349 62.460114 0.349995
v 6.942586 62.136631 0.349995
v 6.004525 62.996983 0.349995
v 6.377774 64.063408 0.349995
v 6.880378 64.552536 0.349995
v 7.309911 64.668213 0.349995
v 7.573556 64.309921 0.349995
v 7.661438 63.614128 0.349995
v 7.288188 62.547699 0.349995
v 6.149677 62.635830 0.977695
v 6.949498 62.355892 0.977695
v 6.132397 63.085236 0.977695
v 6.443439 63.973923 0.977695
v 6.871737 64.378220 0.977695
v 7.240791 64.470726 0.977695
v 7.471603 64.168266 0.977695
v 7.554301 63.585121 0.977695
v 7.243259 62.696434 0.977695
vn -0.2116 -0.6045 -0.7680
vn -0.4951 0.0670 -0.8662
vn -0.5581 0.0088 -0.8298
vn -0.4952 0.1733 -0.8513
vn -0.5566 0.3805 -0.7385
vn -0.3830 0.3557 -0.8525
vn -0.4299 0.6776 -0.5967
vn -0.1956 0.5790 -0.7915
vn 0.5814 0.2005 -0.7885
vn 0.6111 0.3931 -0.6870
vn 0.5146 -0.0380 -0.8566
vn 0.6425 0.0484 -0.7647
vn 0.4952 -0.1733 -0.8513
vn 0.5025 -0.3003 -0.8108
vn 0.3899 -0.3011 -0.8702
vn -0.3298 -0.9423 -0.0580
vn -0.9847 0.0156 -0.1738
vn -0.9907 -0.0000 -0.1364
vn -0.9298 0.3254 -0.1718
vn -0.7287 0.6768 -0.1043
vn -0.7098 0.6852 -0.1635
vn -0.3198 0.9464 -0.0457
vn -0.2951 0.9509 -0.0930
vn 0.8373 0.5386 -0.0942
vn 0.8264 0.5612 -0.0467
vn 0.9836 0.0740 -0.1645
vn 0.9901 0.0938 -0.1044
vn 0.9298 -0.3254 -0.1718
vn 0.7841 -0.6055 -0.1362
vn 0.7699 -0.6142 -0.1734
vn -0.0000 -0.0000 1.0000
vn -0.3134 -0.8954 0.3162
vn -0.9789 -0.0252 0.2030
vn -0.9760 -0.0375 0.2147
vn -0.9340 0.3269 0.1443
vn -0.6853 0.7041 0.1861
vn -0.6761 0.7162 0.1728
vn -0.2507 0.9310 0.2653
vn -0.2350 0.9374 0.2571
vn 0.7787 0.5730 0.2558
vn 0.7658 0.5844 0.2682
vn 0.9772 0.1234 0.1725
vn 0.9722 0.1379 0.1890
vn 0.9340 -0.3269 0.1443
vn 0.7481 -0.6290 0.2115
vn 0.7412 -0.6394 0.2045
vn -0.0000 -0.0000 -1.0000
s 1
f 1//1 2//1 3//1
f 4//1 1//1 3//1
f 5//2 6//2 2//2
f 1//3 5//3 2//3
f 7//4 8//4 6//4
f 5//4 7//4 6//4
f 9//5 10//5 8//5
f 7//6 9//6 8//6
f 11//7 12//7 10//7
f 9//8 11//8 10//8
f 13//9 14//9 12//9
f 11//10 13//10 12//10
f 15//11 16//11 14//11
f 13//12 15//12 14//12
f 17//13 18//13 16//13
f 15//13 17//13 16//13
f 4//14 3//14 18//14
f 17//15 4//15 18//15
f 19//16 1//16 4//16
f 20//16 19//16 4//16
f 21//17 5//17 1//17
f 19//18 21//18 1//18
f 22//19 7//19 5//19
f 21//19 22//19 5//19
f 23//20 9//20 7//20
f 22//21 23//21 7//21
f 24//22 11//22 9//22
f 23//23 24//23 9//23
f 25//24 13//24 11//24
f 24//25 25//25 11//25
f 26//26 15//26 13//26
f 25//27 26//27 13//27
f 27//28 17//28 15//28
f 26//28 27//28 15//28
f 20//29 4//29 17//29
f 27//30 20//30 17//30
f 28//31 19//31 20//31
f 29//31 28//31 20//31
f 30//31 21//31 19//31
f 28//31 30//31 19//31
f 31//31 22//31 21//31
f 30//31 31//31 21//31
f 32//31 23//31 22//31
f 31//31 32//31 22//31
f 33//31 24//31 23//31
f 32//31 33//31 23//31
f 34//31 25//31 24//31
f 33//31 34//31 24//31
f 35//31 26//31 25//31
f 34//31 35//31 25//31
f 36//31 27//31 26//31
f 35//31 36//31 26//31
f 29//31 20//31 27//31
f 36//31 29//31 27//31
f 37//32 28//32 29//32
f 38//32 37//32 29//32
f 39//33 30//33 28//33
f 37//34 39//34 28//34
f 40//35 31//35 30//35
f 39//35 40//35 30//35
f 41//36 32//36 31//36
f 40//37 41//37 31//37
f 42//38 33//38 32//38
f 41//39 42//39 32//39
f 43//40 34//40 33//40
f 42//41 43//41 33//41
f 44//42 35//42 34//42
f 43//43 44//43 34//43
f 45//44 36//44 35//44
f 44//44 45//44 35//44
f 38//45 29//45 36//45
f 45//46 38//46 36//46
f 3//47 2//47 18//47
f 37//31 38//31 45//31
f 2//47 6//47 18//47
f 39//31 37//31 45//31
f 6//47 8//47 18//47
f 40//31 39//31 45//31
f 8//47 10//47 18//47
f 41//31 40//31 45//31
f 10//47 12//47 18//47
f 42//31 41//31 45//31
f 12//47 14//47 18//47
f 43//31 42//31 45//31
f 16//47 18//47 14//47
f 45//31 44//31 43//31
o barco_02
v 10.080884 57.550922 -0.100004
v 10.656591 57.884727 -0.534976
v 11.509734 57.586128 -0.534976
v 11.751621 56.966164 -0.100004
v 10.144820 58.775486 -0.100004
v 10.812740 58.862896 -0.534976
v 11.019625 61.274929 -0.100005
v 11.537326 60.933140 -0.534976
v 12.039334 62.476707 -0.100005
v 12.212404 61.987888 -0.534976
v 12.860262 62.812855 -0.100005
v 12.693352 62.335968 -0.534976
v 13.292387 62.038139 -0.100005
v 12.852262 61.763939 -0.534976
v 13.340093 60.462765 -0.100005
v 12.722245 60.518417 -0.534976
v 12.465288 57.963322 -0.100004
v 11.997661 58.448177 -0.534976
v 10.017745 57.541534 0.386364
v 11.795124 56.919449 0.386364
v 10.064872 58.784576 0.386364
v 10.948513 61.309261 0.386364
v 12.007198 62.513145 0.386364
v 12.870080 62.840908 0.386364
v 13.340233 62.046585 0.386364
v 13.417095 60.445259 0.386364
v 12.533455 57.920570 0.386364
v 10.954864 58.850941 0.386364
v 11.879101 58.527458 0.386364
v 10.963661 59.452438 0.386364
v 11.387808 60.664291 0.386364
v 11.918688 61.234203 0.386364
v 12.359532 61.382198 0.386364
v 12.611866 60.991592 0.386364
v 12.671472 60.215008 0.386364
v 12.247324 59.003159 0.386364
v 11.095617 59.053585 1.099659
v 11.895438 58.773647 1.099659
v 11.097189 59.556850 1.099659
v 11.450644 60.566723 1.099659
v 11.902508 61.038342 1.099659
v 12.280986 61.157784 1.099659
v 12.502374 60.828388 1.099659
v 12.561507 60.177921 1.099659
v 12.208051 59.168049 1.099659
vn -0.2155 -0.6158 -0.7578
vn -0.5517 0.0881 -0.8294
vn -0.6143 0.0321 -0.7884
vn -0.5531 0.1936 -0.8103
vn -0.6134 0.3926 -0.6853
vn -0.4399 0.3732 -0.8168
vn -0.4886 0.6751 -0.5527
vn -0.2437 0.5951 -0.7658
vn 0.6342 0.1762 -0.7528
vn 0.6591 0.3677 -0.6560
vn 0.5710 -0.0596 -0.8188
vn 0.6961 0.0211 -0.7176
vn 0.5531 -0.1936 -0.8103
vn 0.5610 -0.3175 -0.7645
vn 0.4463 -0.3194 -0.8359
vn -0.3297 -0.9421 -0.0610
vn -0.9853 0.0514 -0.1629
vn -0.9911 0.0376 -0.1279
vn -0.9318 0.3261 -0.1593
vn -0.7588 0.6438 -0.0984
vn -0.7419 0.6524 -0.1545
vn -0.3785 0.9245 -0.0456
vn -0.3535 0.9308 -0.0931
vn 0.8695 0.4850 -0.0939
vn 0.8596 0.5088 -0.0467
vn 0.9874 0.0299 -0.1553
vn 0.9940 0.0477 -0.0986
vn 0.9318 -0.3261 -0.1593
vn 0.8065 -0.5772 -0.1276
vn 0.7941 -0.5856 -0.1628
vn -0.0000 -0.0000 1.0000
vn -0.3134 -0.8954 0.3162
vn -0.9832 0.0144 0.1820
vn -0.9812 0.0031 0.1928
vn -0.9362 0.3277 0.1273
vn -0.7213 0.6719 0.1681
vn -0.7132 0.6833 0.1563
vn -0.3078 0.9168 0.2546
vn -0.2916 0.9241 0.2471
vn 0.8143 0.5260 0.2454
vn 0.8019 0.5390 0.2579
vn 0.9849 0.0756 0.1558
vn 0.9812 0.0892 0.1710
vn 0.9362 -0.3277 0.1273
vn 0.7760 -0.6017 0.1892
vn 0.7764 -0.6010 0.1896
vn 0.7710 -0.6096 0.1842
vn 0.7704 -0.6106 0.1836
vn -0.0000 -0.0000 -1.0000
s 1
f 46//48 47//48 48//48
f 49//48 46//48 48//48
f 50//49 51//49 47//49
f 46//50 50//50 47//50
f 52//51 53//51 51//51
f 50//51 52//51 51//51
f 54//52 55//52 53//52
f 52//53 54//53 53//53
f 56//54 57//54 55//54
f 54//55 56//55 55//55
f 58//56 59//56 57//56
f 56//57 58//57 57//57
f 60//58 61//58 59//58
f 58//59 60//59 59//59
f 62//60 63//60 61//60
f 60//60 62//60 61//60
f 49//61 48//61 63//61
f 62//62 49//62 63//62
f 64//63 46//63 49//63
f 65//63 64//63 49//63
f 66//64 50//64 46//64
f 64//65 66//65 46//65
f 67//66 52//66 50//66
f 66//66 67//66 50//66
f 68//67 54//67 52//67
f 67//68 68//68 52//68
f 69//69 56//69 54//69
f 68//70 69//70 54//70
f 70//71 58//71 56//71
f 69//72 70//72 56//72
f 71//73 60//73 58//73
f 70//74 71//74 58//74
f 72//75 62//75 60//75
f 71//75 72//75 60//75
f 65//76 49//76 62//76
f 72//77 65//77 62//77
f 73//78 64//78 65//78
f 74//78 73//78 65//78
f 75//78 66//78 64//78
f 73//78 75//78 64//78
f 76//78 67//78 66//78
f 75//78 76//78 66//78
f 77//78 68//78 67//78
f 76//78 77//78 67//78
f 78//78 69//78 68//78
f 77//78 78//78 68//78
f 79//78 70//78 69//78
f 78//78 79//78 69//78
f 80//78 71//78 70//78
f 79//78 80//78 70//78
f 81//78 72//78 71//78
f 80//78 81//78 71//78
f 74//78 65//78 72//78
f 81//78 74//78 72//78
f 82//79 73//79 74//79
f 83//79 82//79 74//79
f 84//80 75//80 73//80
f 82//81 84//81 73//81
f 85//82 76//82 75//82
f 84//82 85//82 75//82
f 86//83 77//83 76//83
f 85//84 86//84 76//84
f 87//85 78//85 77//85
f 86//86 87//86 77//86
f 88//87 79//87 78//87
f 87//88 88//88 78//88
f 89//89 80//89 79//89
f 88//90 89//90 79//90
f 90//91 81//91 80//91
f 89//91 90//91 80//91
f 83//92 74//93 81//94
f 90//95 83//92 81//94
f 48//96 47//96 63//96
f 82//78 83//78 90//78
f 47//96 51//96 63//96
f 84//78 82//78 90//78
f 51//96 53//96 63//96
f 85//78 84//78 90//78
f 53//96 55//96 63//96
f 86//78 85//78 90//78
f 55//96 57//96 63//96
f 87//78 86//78 90//78
f 57//96 59//96 63//96
f 88//78 87//78 90//78
f 61//96 63//96 59//96
f 90//78 89//78 88//78
o barco_03
v 13.384764 56.135399 -0.100004
v 13.911845 56.389870 -0.450004
v 14.726208 56.104843 -0.450004
v 14.979558 55.577221 -0.100004
v 13.393482 57.154842 -0.100004
v 14.017568 57.199780 -0.450004
v 14.110821 59.204380 -0.100004
v 14.611728 58.897381 -0.450004
v 15.018791 60.164707 -0.100005
v 15.201960 59.749439 -0.450004
v 15.776248 60.410847 -0.100005
v 15.639381 60.019798 -0.450005
v 16.214888 59.746075 -0.100005
v 15.812733 59.535671 -0.450004
v 16.325813 58.429134 -0.100004
v 15.742787 58.501511 -0.450004
v 15.608474 56.379593 -0.100004
v 15.148627 56.803909 -0.450004
v 13.325814 56.130211 0.349996
v 15.022405 55.536404 0.349996
v 13.317960 57.165783 0.349996
v 14.042545 59.236023 0.349996
v 14.987059 60.196472 0.349995
v 15.784299 60.433849 0.349995
v 16.259501 59.751118 0.349995
v 16.398920 58.411293 0.349996
v 15.674335 56.341049 0.349996
v 14.151646 57.183838 0.349996
v 15.033872 56.875057 0.349996
v 14.134680 57.685532 0.349996
v 14.482480 58.679245 0.349996
v 14.957525 59.132675 0.349996
v 15.365649 59.237709 0.349996
v 15.619195 58.901089 0.349996
v 15.707795 58.250385 0.349996
v 15.359994 57.256668 0.349996
v 14.275434 57.347076 0.934898
v 15.038898 57.079865 0.934898
v 14.255797 57.767078 0.934898
v 14.545631 58.595173 0.934898
v 14.950535 58.969868 0.934898
v 15.301242 59.053684 0.934898
v 15.523134 58.769459 0.934898
v 15.606000 58.224045 0.934898
v 15.316166 57.395947 0.934898
vn -0.2132 -0.6091 -0.7639
vn -0.4917 0.0642 -0.8684
vn -0.5548 0.0047 -0.8320
vn -0.4913 0.1719 -0.8539
vn -0.5514 0.3819 -0.7417
vn -0.3779 0.3573 -0.8542
vn -0.4217 0.6822 -0.5973
vn -0.1893 0.5826 -0.7904
vn 0.5784 0.2071 -0.7890
vn 0.6076 0.4009 -0.6856
vn 0.5112 -0.0346 -0.8587
vn 0.6394 0.0539 -0.7670
vn 0.4913 -0.1719 -0.8539
vn 0.4977 -0.3007 -0.8136
vn 0.3852 -0.3019 -0.8721
vn -0.3299 -0.9425 -0.0541
vn -0.9861 0.0084 -0.1657
vn -0.9915 -0.0075 -0.1300
vn -0.9311 0.3259 -0.1642
vn -0.7231 0.6836 -0.0992
vn -0.7043 0.6926 -0.1556
vn -0.3088 0.9502 -0.0430
vn -0.2843 0.9547 -0.0874
vn 0.8314 0.5486 -0.0886
vn 0.8200 0.5707 -0.0439
vn 0.9842 0.0829 -0.1566
vn 0.9897 0.1030 -0.0993
vn 0.9311 -0.3259 -0.1642
vn 0.7804 -0.6117 -0.1298
vn 0.7663 -0.6209 -0.1653
vn -0.0000 -0.0000 1.0000
vn -0.3134 -0.8954 0.3162
vn -0.9778 -0.0331 0.2071
vn -0.9747 -0.0456 0.2190
vn -0.9335 0.3267 0.1478
vn -0.9335 0.3267 0.1477
vn -0.6779 0.7103 0.1896
vn -0.6686 0.7225 0.1760
vn -0.2402 0.9332 0.2672
vn -0.2245 0.9395 0.2588
vn 0.7718 0.5813 0.2576
vn 0.7590 0.5925 0.2700
vn 0.9754 0.1328 0.1757
vn 0.9702 0.1474 0.1925
vn 0.9335 -0.3267 0.1477
vn 0.9335 -0.3267 0.1478
vn 0.7423 -0.6344 0.2157
vn 0.7352 -0.6449 0.2087
vn -0.0000 -0.0000 -1.0000
s 1
f 91//97 92//97 93//97
f 94//97 91//97 93//97
f 95//98 96//98 92//98
f 91//99 95//99 92//99
f 97//100 98//100 96//100
f 95//100 97//100 96//100
f 99//101 100//101 98//101
f 97//102 99//102 98//102
f 101//103 102//103 100//103
f 99//104 101//104 100//104
f 103//105 104//105 102//105
f 101//106 103//106 102//106
f 105//107 106//107 104//107
f 103//108 105//108 104//108
f 107//109 108//109 106//109
f 105//109 107//109 106//109
f 94//110 93//110 108//110
f 107//111 94//111 108//111
f 109//112 91//112 94//112
f 110//112 109//112 94//112
f 111//113 95//113 91//113
f 109//114 111//114 91//114
f 112//115 97//115 95//115
f 111//115 112//115 95//115
f 113//116 99//116 97//116
f 112//117 113//117 97//117
f 114//118 101//118 99//118
f 113//119 114//119 99//119
f 115//120 103//120 101//120
f 114//121 115//121 101//121
f 116//122 105//122 103//122
f 115//123 116//123 103//123
f 117//124 107//124 105//124
f 116//124 117//124 105//124
f 110//125 94//125 107//125
f 117//126 110//126 107//126
f 118//127 109//127 110//127
f 119//127 118//127 110//127
f 120//127 111//127 109//127
f 118//127 120//127 109//127
f 121//127 112//127 111//127
f 120//127 121//127 111//127
f 122//127 113//127 112//127
f 121//127 122//127 112//127
f 123//127 114//127 113//127
f 122//127 123//127 113//127
f 124//127 115//127 114//127
f 123//127 124//127 114//127
f 125//127 116//127 115//127
f 124//127 125//127 115//127
f 126//127 117//127 116//127
f 125//127 126//127 116//127
f 119//127 110//127 117//127
f 126//127 119//127 117//127
f 127//128 118//128 119//128
f 128//128 127//128 119//128
f 129//129 120//129 118//129
f 127//130 129//130 118//130
f 130//131 121//131 120//131
f 129//132 130//131 120//131
f 131//133 122//133 121//133
f 130//134 131//134 121//134
f 132//135 123//135 122//135
f 131//136 132//136 122//136
f 133//137 124//137 123//137
f 132//138 133//138 123//138
f 134//139 125//139 124//139
f 133//140 134//140 124//140
f 135//141 126//141 125//142
f 134//142 135//141 125//142
f 128//143 119//143 126//143
f 135//144 128//144 126//144
f 93//145 92//145 108//145
f 127//127 128//127 135//127
f 92//145 96//145 108//145
f 129//127 127//127 135//127
f 96//145 98//145 108//145
f 130//127 129//127 135//127
f 98//145 100//145 108//145
f 131//127 130//127 135//127
f 100//145 102//145 108//145
f 132//127 131//127 135//127
f 102//145 104//145 108//145
f 133//127 132//127 135//127
f 106//145 108//145 104//145
f 135//127 134//127 133//127
o barco_04
v 17.746273 55.426041 -0.100004
v 18.384859 55.558659 -0.450004
v 19.340313 55.080929 -0.450004
v 19.617373 54.490490 -0.100004
v 17.803522 56.450100 -0.100004
v 18.547844 56.349083 -0.450004
v 18.750938 58.344933 -0.100004
v 19.332573 57.918541 -0.450004
v 19.874992 59.098763 -0.100004
v 20.073748 58.637856 -0.450004
v 20.787191 59.169003 -0.100004
v 20.606428 58.807476 -0.450004
v 21.278316 58.397099 -0.100004
v 20.790339 58.279560 -0.450004
v 21.349688 57.045559 -0.100004
v 20.659594 57.255032 -0.450004
v 20.402271 55.150726 -0.100004
v 19.874865 55.685574 -0.450004
v 17.675922 55.434631 0.349996
v 19.666454 54.439365 0.349996
v 17.714203 56.478809 0.349996
v 18.671188 58.392780 0.349996
v 19.838713 59.138168 0.349996
v 20.797825 59.190269 0.349996
v 21.331610 58.391720 0.349996
v 21.435816 57.010468 0.349996
v 20.478830 55.096497 0.349996
v 18.706575 56.301617 0.349996
v 19.741652 55.784081 0.349996
v 18.709469 56.810566 0.349996
v 19.168821 57.729271 0.349996
v 19.754667 58.074341 0.349996
v 20.244900 58.084419 0.349996
v 20.530975 57.686188 0.349996
v 20.606428 57.010468 0.349996
v 20.147074 56.091763 0.349996
v 18.861311 56.436916 0.920632
v 19.757050 55.989044 0.920632
v 18.857269 56.864262 0.920632
v 19.240065 57.629852 0.920632
v 19.738867 57.912109 0.920632
v 20.159834 57.914288 0.920632
v 20.410671 57.576206 0.920632
v 20.484146 57.007809 0.920632
v 20.101351 56.242222 0.920632
vn -0.2928 -0.5855 -0.7560
vn -0.2927 -0.5855 -0.7560
vn -0.4145 0.0855 -0.9061
vn -0.4848 0.0271 -0.8742
vn -0.3951 0.1975 -0.8972
vn -0.4164 0.4291 -0.8015
vn -0.2555 0.3809 -0.8886
vn -0.2338 0.7341 -0.6375
vn -0.0456 0.5916 -0.8049
vn 0.5419 0.1888 -0.8190
vn 0.5995 0.3814 -0.7036
vn 0.4381 -0.0559 -0.8972
vn 0.5777 0.0305 -0.8157
vn 0.3951 -0.1975 -0.8972
vn 0.3781 -0.3343 -0.8633
vn 0.2726 -0.3240 -0.9059
vn -0.4466 -0.8932 -0.0528
vn -0.9787 0.0547 -0.1978
vn -0.9872 0.0362 -0.1550
vn -0.8760 0.4380 -0.2018
vn -0.5532 0.8248 -0.1168
vn -0.5291 0.8288 -0.1819
vn -0.0767 0.9960 -0.0453
vn -0.0540 0.9943 -0.0914
vn 0.8400 0.5345 -0.0931
vn 0.8305 0.5551 -0.0459
vn 0.9816 0.0518 -0.1838
vn 0.9904 0.0747 -0.1164
vn 0.8760 -0.4380 -0.2018
vn 0.6359 -0.7560 -0.1553
vn 0.6166 -0.7623 -0.1968
vn -0.0000 -0.0000 1.0000
vn -0.4243 -0.8485 0.3162
vn -0.9682 0.0055 0.2502
vn -0.9646 -0.0091 0.2637
vn -0.8788 0.4394 0.1863
vn -0.4945 0.8395 0.2250
vn -0.4817 0.8512 0.2084
vn -0.0197 0.9589 0.2829
vn -0.0050 0.9619 0.2733
vn 0.7813 0.5613 0.2729
vn 0.7698 0.5711 0.2850
vn 0.9719 0.1085 0.2088
vn 0.9657 0.1248 0.2277
vn 0.8788 -0.4394 0.1863
vn 0.5837 -0.7691 0.2605
vn 0.5734 -0.7797 0.2515
vn -0.0000 -0.0000 -1.0000
s 1
f 136//146 137//146 138//147
f 139//147 136//146 138//147
f 140//148 141//148 137//148
f 136//149 140//149 137//149
f 142//150 143//150 141//150
f 140//150 142//150 141//150
f 144//151 145//151 143//151
f 142//152 144//152 143//152
f 146//153 147//153 145//153
f 144//154 146//154 145//154
f 148//155 149//155 147//155
f 146//156 148//156 147//156
f 150//157 151//157 149//157
f 148//158 150//158 149//158
f 152//159 153//159 151//159
f 150//159 152//159 151//159
f 139//160 138//160 153//160
f 152//161 139//161 153//161
f 154//162 136//162 139//162
f 155//162 154//162 139//162
f 156//163 140//163 136//163
f 154//164 156//164 136//164
f 157//165 142//165 140//165
f 156//165 157//165 140//165
f 158//166 144//166 142//166
f 157//167 158//167 142//167
f 159//168 146//168 144//168
f 158//169 159//169 144//169
f 160//170 148//170 146//170
f 159//171 160//171 146//171
f 161//172 150//172 148//172
f 160//173 161//173 148//173
f 162//174 152//174 150//174
f 161//174 162//174 150//174
f 155//175 139//175 152//175
f 162//176 155//176 152//176
f 163//177 154//177 155//177
f 164//177 163//177 155//177
f 165//177 156//177 154//177
f 163//177 165//177 154//177
f 166//177 157//177 156//177
f 165//177 166//177 156//177
f 167//177 158//177 157//177
f 166//177 167//177 157//177
f 168//177 159//177 158//177
f 167//177 168//177 158//177
f 169//177 160//177 159//177
f 168//177 169//177 159//177
f 170//177 161//177 160//177
f 169//177 170//177 160//177
f 171//177 162//177 161//177
f 170//177 171//177 161//177
f 164//177 155//177 162//177
f 171//177 164//177 162//177
f 172//178 163//178 164//178
f 173//178 172//178 164//178
f 174//179 165//179 163//179
f 172//180 174//180 163//180
f 175//181 166//181 165//181
f 174//181 175//181 165//181
f 176//182 167//182 166//182
f 175//183 176//183 166//183
f 177//184 168//184 167//184
f 176//185 177//185 167//185
f 178//186 169//186 168//186
f 177//187 178//187 168//187
f 179//188 170//188 169//188
f 178//189 179//189 169//189
f 180//190 171//190 170//190
f 179//190 180//190 170//190
f 173//191 164//191 171//191
f 180//192 173//192 171//192
f 138//193 137//193 153//193
f 172//177 173//177 180//177
f 137//193 141//193 153//193
f 174//177 172//177 180//177
f 141//193 143//193 153//193
f 175//177 174//177 180//177
f 143//193 145//193 153//193
f 176//177 175//177 180//177
f 145//193 147//193 153//193
f 177//177 176//177 180//177
f 147//193 149//193 153//193
f 178//177 177//177 180//177
f 151//193 153//193 149//193
f 180//177 179//177 178//177
o barco_05
v 29.560221 42.514351 -0.100003
v 30.054853 42.849785 -0.524275
v 30.703356 42.590382 -0.524275
v 30.830204 42.006355 -0.100003
v 29.741640 43.684029 -0.100003
v 30.283560 43.787235 -0.524275
v 30.705454 46.093563 -0.100003
v 31.081871 45.783009 -0.524276
v 31.646595 47.269917 -0.100004
v 31.732536 46.808910 -0.524276
v 32.337021 47.614872 -0.100004
v 32.153126 47.155140 -0.524276
v 32.599083 46.888924 -0.100004
v 32.218914 46.614361 -0.524276
v 32.469322 45.388016 -0.100003
v 31.982569 45.422729 -0.524276
v 31.505508 42.978481 -0.100003
v 31.184259 43.426956 -0.524275
v 29.508871 42.503521 0.378638
v 30.859919 41.963100 0.378638
v 29.678856 43.690323 0.378638
v 30.652405 46.124195 0.378637
v 31.624851 47.303711 0.378637
v 32.347839 47.641914 0.378637
v 32.638138 46.898396 0.378637
v 32.528862 45.373611 0.378638
v 31.555311 42.939739 0.378638
v 30.395618 43.780056 0.378638
v 31.098164 43.499039 0.378638
v 30.466703 44.353924 0.378638
v 30.934006 45.522182 0.378638
v 31.418043 46.081448 0.378637
v 31.785343 46.235676 0.378637
v 31.944952 45.870682 0.378638
v 31.909763 45.131882 0.378638
v 31.442459 43.963623 0.378638
v 30.529442 43.977486 1.077667
v 31.137413 43.734299 1.077667
v 30.584301 44.457462 1.077667
v 30.973721 45.431011 1.077667
v 31.384277 45.894184 1.077667
v 31.698805 46.019333 1.077667
v 31.840256 45.711792 1.077667
v 31.818125 45.093246 1.077667
v 31.428705 44.119698 1.077667
vn -0.2417 -0.6041 -0.7594
vn -0.6271 0.1530 -0.7638
vn -0.6880 0.1067 -0.7178
vn -0.6259 0.2504 -0.7386
vn -0.6746 0.4279 -0.6015
vn -0.5124 0.4099 -0.7546
vn -0.5543 0.6733 -0.4893
vn -0.3063 0.6131 -0.7282
vn 0.7134 0.0868 -0.6954
vn 0.7432 0.2683 -0.6129
vn 0.6464 -0.1282 -0.7521
vn 0.7640 -0.0661 -0.6418
vn 0.6259 -0.2504 -0.7386
vn 0.6300 -0.3622 -0.6869
vn 0.5194 -0.3608 -0.7746
vn -0.3707 -0.9268 -0.0607
vn -0.9797 0.1520 -0.1305
vn -0.9847 0.1410 -0.1025
vn -0.9211 0.3684 -0.1257
vn -0.7784 0.6227 -0.0793
vn -0.7655 0.6311 -0.1252
vn -0.4466 0.8938 -0.0404
vn -0.4223 0.9027 -0.0829
vn 0.9373 0.3384 -0.0832
vn 0.9307 0.3634 -0.0416
vn 0.9884 -0.0855 -0.1255
vn 0.9943 -0.0713 -0.0797
vn 0.9211 -0.3684 -0.1257
vn 0.8170 -0.5675 -0.1020
vn 0.8076 -0.5751 -0.1306
vn -0.0000 -0.0000 1.0000
vn -0.3523 -0.8808 0.3162
vn -0.9816 0.1210 0.1476
vn -0.9816 0.1216 0.1471
vn -0.9814 0.1132 0.1552
vn -0.9813 0.1122 0.1562
vn -0.9238 0.3695 0.1007
vn -0.7489 0.6482 0.1375
vn -0.7422 0.6579 0.1280
vn -0.3767 0.8971 0.2310
vn -0.3602 0.9053 0.2251
vn 0.8932 0.3906 0.2226
vn 0.8831 0.4062 0.2350
vn 0.9907 -0.0472 0.1273
vn 0.9895 -0.0354 0.1402
vn 0.9238 -0.3695 0.1007
vn 0.7935 -0.5890 0.1530
vn 0.7939 -0.5884 0.1534
vn 0.7895 -0.5954 0.1492
vn 0.7889 -0.5963 0.1487
vn -0.0000 -0.0000 -1.0000
s 1
f 181//194 182//194 183//194
f 184//194 181//194 183//194
f 185//195 186//195 182//195
f 181//196 185//196 182//196
f 187//197 188//197 186//197
f 185//197 187//197 186//197
f 189//198 190//198 188//198
f 187//199 189//199 188//199
f 191//200 192//200 190//200
f 189//201 191//201 190//201
f 193//202 194//202 192//202
f 191//203 193//203 192//203
f 195//204 196//204 194//204
f 193//205 195//205 194//205
f 197//206 198//206 196//206
f 195//206 197//206 196//206
f 184//207 183//207 198//207
f 197//208 184//208 198//208
f 199//209 181//209 184//209
f 200//209 199//209 184//209
f 201//210 185//210 181//210
f 199//211 201//211 181//211
f 202//212 187//212 185//212
f 201//212 202//212 185//212
f 203//213 189//213 187//213
f 202//214 203//214 187//214
f 204//215 191//215 189//215
f 203//216 204//216 189//216
f 205//217 193//217 191//217
f 204//218 205//218 191//218
f 206//219 195//219 193//219
f 205//220 206//220 193//220
f 207//221 197//221 195//221
f 206//221 207//221 195//221
f 200//222 184//222 197//222
f 207//223 200//223 197//223
f 208//224 199//224 200//224
f 209//224 208//224 200//224
f 210//224 201//224 199//224
f 208//224 210//224 199//224
f 211//224 202//224 201//224
f 210//224 211//224 201//224
f 212//224 203//224 202//224
f 211//224 212//224 202//224
f 213//224 204//224 203//224
f 212//224 213//224 203//224
f 214//224 205//224 204//224
f 213//224 214//224 204//224
f 215//224 206//224 205//224
f 214//224 215//224 205//224
f 216//224 207//224 206//224
f 215//224 216//224 206//224
f 209//224 200//224 207//224
f 216//224 209//224 207//224
f 217//225 208//225 209//225
f 218//225 217//225 209//225
f 219//226 210//227 208//228
f 217//229 219//226 208//228
f 220//230 211//230 210//230
f 219//230 220//230 210//230
f 221//231 212//231 211//231
f 220//232 221//232 211//232
f 222//233 213//233 212//233
f 221//234 222//234 212//234
f 223//235 214//235 213//235
f 222//236 223//236 213//236
f 224//237 215//237 214//237
f 223//238 224//238 214//238
f 225//239 216//239 215//239
f 224//239 225//239 215//239
f 218//240 209//241 216//242
f 225//243 218//240 216//242
f 183//244 182//244 198//244
f 217//224 218//224 225//224
f 182//244 186//244 198//244
f 219//224 217//224 225//224
f 186//244 188//244 198//244
f 220//224 219//224 225//224
f 188//244 190//244 198//244
f 221//224 220//224 225//224
f 190//244 192//244 198//244
f 222//224 221//224 225//224
f 192//244 194//244 198//244
f 223//224 222//224 225//224
f 196//244 198//244 194//244
f 225//224 224//224 223//224
o barco_06
v 58.324478 45.684032 -0.100003
v 59.484127 46.761101 -1.508623
v 60.823849 46.238609 -1.508623
v 60.948101 44.660820 -0.100003
v 59.020260 48.975117 -0.100004
v 60.222477 49.423851 -1.508623
v 61.733601 55.932404 -0.100004
v 62.469891 55.186455 -1.508624
v 64.079117 59.470703 -0.100004
v 64.146423 58.220993 -1.508624
v 65.665939 60.633064 -0.100005
v 65.148239 59.305634 -1.508624
v 66.046837 58.703297 -0.100004
v 65.151215 57.829121 -1.508624
v 65.377525 54.511276 -0.100004
v 64.330620 54.460770 -1.508624
v 62.664181 47.553989 -0.100004
v 62.083202 48.698170 -1.508623
v 58.210293 45.638603 1.089555
v 61.001381 44.550079 1.089555
v 58.885693 48.973621 1.089555
v 61.626442 56.001186 1.089555
v 64.040680 59.557663 1.089554
v 65.696396 60.711147 1.089554
v 66.133995 58.741272 1.089554
v 65.502953 54.489346 1.089555
v 62.762207 47.461784 1.089555
v 60.463699 49.437729 1.089555
v 61.915066 48.871696 1.089555
v 60.766182 51.047001 1.089555
v 62.081741 54.420235 1.089555
v 63.276241 56.113434 1.089554
v 64.112846 56.650780 1.089554
v 64.364761 55.688908 1.089555
v 64.097527 53.634075 1.089555
v 62.781967 50.260845 1.089555
v 60.805008 50.024300 2.889555
v 62.061001 49.534466 2.889555
v 61.048035 51.368893 2.889555
v 62.144333 54.179916 2.889555
v 63.154610 55.585121 2.889555
v 63.869225 56.026104 2.889555
v 64.096603 55.217747 2.889555
v 63.888763 53.499588 2.889555
v 62.792465 50.688564 2.889555
vn -0.2555 -0.6550 -0.7111
vn -0.7756 0.2151 -0.5934
vn -0.8213 0.1736 -0.5434
vn -0.7706 0.3005 -0.5620
vn -0.7919 0.4375 -0.4260
vn -0.6738 0.4466 -0.5887
vn -0.6891 0.6365 -0.3465
vn -0.4741 0.6473 -0.5969
vn 0.8434 0.0017 -0.5373
vn 0.8621 0.1702 -0.4772
vn 0.7909 -0.1927 -0.5809
vn 0.8725 -0.1393 -0.4683
vn 0.7706 -0.3005 -0.5620
vn 0.7670 -0.3927 -0.5075
vn 0.6818 -0.4044 -0.6097
vn -0.3624 -0.9294 -0.0703
vn -0.9725 0.2056 -0.1097
vn -0.9765 0.1978 -0.0862
vn -0.9266 0.3614 -0.1044
vn -0.8316 0.5513 -0.0672
vn -0.8227 0.5585 -0.1064
vn -0.5905 0.8061 -0.0378
vn -0.5699 0.8180 -0.0782
vn 0.9781 0.1931 -0.0778
vn 0.9755 0.2167 -0.0392
vn 0.9819 -0.1568 -0.1064
vn 0.9869 -0.1465 -0.0676
vn 0.9266 -0.3614 -0.1044
vn 0.8569 -0.5083 -0.0857
vn 0.8505 -0.5143 -0.1100
vn -0.0000 -0.0000 1.0000
vn -0.3405 -0.8731 0.3491
vn -0.9757 0.1831 0.1202
vn -0.9757 0.1834 0.1200
vn -0.9760 0.1770 0.1269
vn -0.9760 0.1764 0.1276
vn -0.9286 0.3622 0.0806
vn -0.8075 0.5802 0.1059
vn -0.8119 0.5727 0.1132
vn -0.8075 0.5804 0.1057
vn -0.8074 0.5805 0.1056
vn -0.5279 0.8219 0.2138
vn -0.5135 0.8321 0.2095
vn 0.9466 0.2479 0.2059
vn 0.9393 0.2642 0.2188
vn 0.9861 -0.1196 0.1153
vn 0.9862 -0.1283 0.1048
vn 0.9861 -0.1195 0.1154
vn 0.9861 -0.1193 0.1157
vn 0.9286 -0.3622 0.0806
vn 0.8415 -0.5256 0.1249
vn 0.8417 -0.5253 0.1252
vn 0.8387 -0.5308 0.1217
vn 0.8384 -0.5314 0.1214
vn -0.0000 -0.0000 -1.0000
s 1
f 226//245 227//245 228//245
f 229//245 226//245 228//245
f 230//246 231//246 227//246
f 226//247 230//247 227//247
f 232//248 233//248 231//248
f 230//248 232//248 231//248
f 234//249 235//249 233//249
f 232//250 234//250 233//250
f 236//251 237//251 235//251
f 234//252 236//252 235//252
f 238//253 239//253 237//253
f 236//254 238//254 237//254
f 240//255 241//255 239//255
f 238//256 240//256 239//256
f 242//257 243//257 241//257
f 240//257 242//257 241//257
f 229//258 228//258 243//258
f 242//259 229//259 243//259
f 244//260 226//260 229//260
f 245//260 244//260 229//260
f 246//261 230//261 226//261
f 244//262 246//262 226//262
f 247//263 232//263 230//263
f 246//263 247//263 230//263
f 248//264 234//264 232//264
f 247//265 248//265 232//265
f 249//266 236//266 234//266
f 248//267 249//267 234//267
f 250//268 238//268 236//268
f 249//269 250//269 236//269
f 251//270 240//270 238//270
f 250//271 251//271 238//271
f 252//272 242//272 240//272
f 251//272 252//272 240//272
f 245//273 229//273 242//273
f 252//274 245//274 242//274
f 253//275 244//275 245//275
f 254//275 253//275 245//275
f 255//275 246//275 244//275
f 253//275 255//275 244//275
f 256//275 247//275 246//275
f 255//275 256//275 246//275
f 257//275 248//275 247//275
f 256//275 257//275 247//275
f 258//275 249//275 248//275
f 257//275 258//275 248//275
f 259//275 250//275 249//275
f 258//275 259//275 249//275
f 260//275 251//275 250//275
f 259//275 260//275 250//275
f 261//275 252//275 251//275
f 260//275 261//275 251//275
f 254//275 245//275 252//275
f 261//275 254//275 252//275
f 262//276 253//276 254//276
f 263//276 262//276 254//276
f 264//277 255//278 253//279
f 262//280 264//277 253//279
f 265//281 256//281 255//281
f 264//281 265//281 255//281
f 266//282 257//283 256//284
f 265//285 266//282 256//284
f 267//286 258//286 257//286
f 266//287 267//287 257//287
f 268//288 259//288 258//288
f 267//289 268//289 258//289
f 269//290 260//291 259//292
f 268//293 269//290 259//292
f 270//294 261//294 260//294
f 269//294 270//294 260//294
f 263//295 254//296 261//297
f 270//298 263//295 261//297
f 228//299 227//299 243//299
f 262//275 263//275 270//275
f 227//299 231//299 243//299
f 264//275 262//275 270//275
f 231//299 233//299 243//299
f 265//275 264//275 270//275
f 233//299 235//299 243//299
f 266//275 265//275 270//275
f 235//299 237//299 243//299
f 267//275 266//275 270//275
f 237//299 239//299 243//299
f 268//275 267//275 270//275
f 241//299 243//299 239//299
f 270//275 269//275 268//275
o barco_07
v 70.640266 46.484104 -0.100004
v 69.883301 45.825081 -0.888056
v 68.775505 46.135265 -0.888056
v 68.470833 47.091549 -0.100004
v 70.535316 44.484634 -0.100003
v 69.662384 44.206470 -0.888056
v 69.350060 40.251575 -0.100003
v 68.680656 40.700302 -0.888056
v 67.998573 38.093922 -0.100003
v 67.781372 38.851517 -0.888056
v 66.921646 37.381035 -0.100003
v 67.147789 38.188690 -0.888056
v 66.371498 38.549503 -0.100003
v 66.950523 39.084156 -0.888056
v 66.336960 41.095245 -0.100003
v 67.142052 41.131111 -0.888056
v 67.522217 45.328304 -0.100003
v 68.123779 44.637280 -0.888056
v 70.722801 46.512230 0.641368
v 68.414894 47.158443 0.641368
v 70.639465 44.486214 0.641368
v 69.442238 40.210400 0.641368
v 68.039856 38.041374 0.641369
v 66.908340 37.333527 0.641369
v 66.308929 38.526035 0.641369
v 66.236809 41.107918 0.641368
v 67.434036 45.383732 0.641368
v 69.477173 44.196850 0.641368
v 68.277061 44.532879 0.641368
v 69.455124 43.219337 0.641368
v 68.880455 41.166946 0.641368
v 68.177818 40.134071 0.641368
v 67.600075 39.803997 0.641369
v 67.277733 40.386093 0.641368
v 67.213631 41.633656 0.641368
v 67.788300 43.686047 0.641368
v 69.289978 43.839394 1.825438
v 68.251419 44.130192 1.825438
v 69.279076 43.022705 1.825439
v 68.800186 41.312378 1.825439
v 68.202377 40.455093 1.825439
v 67.706497 40.184067 1.825439
v 67.423454 40.673191 1.825439
v 67.357742 41.716263 1.825439
v 67.836632 43.426590 1.825438
vn 0.1846 0.6594 -0.7288
vn 0.6834 -0.0933 -0.7241
vn 0.7366 -0.0387 -0.6752
vn 0.6907 -0.1934 -0.6968
vn 0.7476 -0.3637 -0.5557
vn 0.5927 -0.3712 -0.7148
vn 0.6464 -0.6179 -0.4477
vn 0.3994 -0.6034 -0.6902
vn -0.7391 -0.1628 -0.6536
vn -0.7425 -0.3496 -0.5714
vn -0.6995 0.0654 -0.7116
vn -0.8023 -0.0109 -0.5969
vn -0.6907 0.1934 -0.6968
vn -0.7026 0.3057 -0.6426
vn -0.5960 0.3207 -0.7362
vn 0.2690 0.9608 -0.0664
vn 0.9890 -0.0519 -0.1388
vn 0.9932 -0.0409 -0.1090
vn 0.9543 -0.2672 -0.1335
vn 0.8444 -0.5289 -0.0845
vn 0.8323 -0.5381 -0.1334
vn 0.5515 -0.8331 -0.0435
vn 0.5282 -0.8444 -0.0893
vn -0.9011 -0.4243 -0.0895
vn -0.8926 -0.4487 -0.0448
vn -0.9909 -0.0134 -0.1336
vn -0.9960 -0.0278 -0.0849
vn -0.9543 0.2672 -0.1335
vn -0.8754 0.4710 -0.1086
vn -0.8667 0.4790 -0.1389
vn -0.0000 -0.0000 1.0000
vn 0.2558 0.9135 0.3162
vn 0.2558 0.9136 0.3162
vn 0.9894 -0.0217 0.1439
vn 0.9894 -0.0223 0.1434
vn 0.9884 -0.0141 0.1513
vn 0.9883 -0.0132 0.1523
vn 0.9583 -0.2683 0.0979
vn 0.8194 -0.5574 0.1341
vn 0.8138 -0.5675 0.1249
vn 0.4830 -0.8454 0.2280
vn 0.4676 -0.8555 0.2223
vn -0.8535 -0.4726 0.2196
vn -0.8419 -0.4872 0.2320
vn -0.9910 -0.0509 0.1242
vn -0.9886 -0.0623 0.1368
vn -0.9583 0.2683 0.0979
vn -0.8560 0.4949 0.1492
vn -0.8564 0.4943 0.1495
vn -0.8528 0.5016 0.1454
vn -0.8524 0.5025 0.1449
vn -0.0000 -0.0000 -1.0000
s 1
f 271//300 272//300 273//300
f 274//300 271//300 273//300
f 275//301 276//301 272//301
f 271//302 275//302 272//302
f 277//303 278//303 276//303
f 275//303 277//303 276//303
f 279//304 280//304 278//304
f 277//305 279//305 278//305
f 281//306 282//306 280//306
f 279//307 281//307 280//307
f 283//308 284//308 282//308
f 281//309 283//309 282//309
f 285//310 286//310 284//310
f 283//311 285//311 284//311
f 287//312 288//312 286//312
f 285//312 287//312 286//312
f 274//313 273//313 288//313
f 287//314 274//314 288//314
f 289//315 271//315 274//315
f 290//315 289//315 274//315
f 291//316 275//316 271//316
f 289//317 291//317 271//317
f 292//318 277//318 275//318
f 291//318 292//318 275//318
f 293//319 279//319 277//319
f 292//320 293//320 277//320
f 294//321 281//321 279//321
f 293//322 294//322 279//322
f 295//323 283//323 281//323
f 294//324 295//324 281//324
f 296//325 285//325 283//325
f 295//326 296//326 283//326
f 297//327 287//327 285//327
f 296//327 297//327 285//327
f 290//328 274//328 287//328
f 297//329 290//329 287//329
f 298//330 289//330 290//330
f 299//330 298//330 290//330
f 300//330 291//330 289//330
f 298//330 300//330 289//330
f 301//330 292//330 291//330
f 300//330 301//330 291//330
f 302//330 293//330 292//330
f 301//330 302//330 292//330
f 303//330 294//330 293//330
f 302//330 303//330 293//330
f 304//330 295//330 294//330
f 303//330 304//330 294//330
f 305//330 296//330 295//330
f 304//330 305//330 295//330
f 306//330 297//330 296//330
f 305//330 306//330 296//330
f 299//330 290//330 297//330
f 306//330 299//330 297//330
f 307//331 298//331 299//331
f 308//332 307//331 299//331
f 309//333 300//334 298//335
f 307//336 309//333 298//335
f 310//337 301//337 300//337
f 309//337 310//337 300//337
f 311//338 302//338 301//338
f 310//339 311//339 301//339
f 312//340 303//340 302//340
f 311//341 312//341 302//341
f 313//342 304//342 303//342
f 312//343 313//343 303//343
f 314//344 305//344 304//344
f 313//345 314//345 304//345
f 315//346 306//346 305//346
f 314//346 315//346 305//346
f 308//347 299//348 306//349
f 315//350 308//347 306//349
f 273//351 272//351 288//351
f 307//330 308//330 315//330
f 272//351 276//351 288//351
f 309//330 307//330 315//330
f 276//351 278//351 288//351
f 310//330 309//330 315//330
f 278//351 280//351 288//351
f 311//330 310//330 315//330
f 280//351 282//351 288//351
f 312//330 311//330 315//330
f 282//351 284//351 288//351
f 313//330 312//330 315//330
f 286//351 288//351 284//351
f 315//330 314//330 313//330
o barco_08
v 77.137077 31.794508 -0.100002
v 78.225899 32.516056 -1.187639
v 79.485252 31.911566 -1.187639
v 79.603310 30.610716 -0.100002
v 77.788177 34.380188 -0.100003
v 78.917511 34.584618 -1.187639
v 80.332115 39.680065 -0.100003
v 81.024612 38.974411 -1.187640
v 82.533241 42.246284 -0.100003
v 82.597519 41.220089 -1.187640
v 84.023399 42.980114 -0.100003
v 83.538025 41.968914 -1.187640
v 84.382912 41.358440 -0.100003
v 83.542030 40.766720 -1.187640
v 83.757439 38.035912 -0.100003
v 82.773712 38.134842 -1.187640
v 81.213501 32.736034 -0.100002
v 80.666611 33.745049 -1.187639
v 77.029816 31.772806 0.857735
v 79.653473 30.513453 0.857735
v 77.661720 34.396973 0.857735
v 80.231361 39.750385 0.857735
v 82.497047 42.322208 0.857735
v 84.051949 43.039597 0.857735
v 84.464790 41.377693 0.857735
v 83.875320 38.001282 0.857735
v 81.305687 32.647873 0.857735
v 79.144173 34.563641 0.857735
v 80.508476 33.908779 0.857735
v 79.427086 35.833038 0.857735
v 80.660507 38.402676 0.857735
v 81.781563 39.621059 0.857735
v 82.567268 39.946514 0.857735
v 82.804787 39.129910 0.857735
v 82.555367 37.493141 0.857735
v 81.321945 34.923504 0.857735
v 79.464417 34.995422 2.441251
v 80.645058 34.428715 2.441251
v 79.691666 36.057335 2.441251
v 80.719521 38.198700 2.441251
v 81.667702 39.207314 2.441251
v 82.338860 39.470657 2.441251
v 82.553185 38.782280 2.441251
v 82.359306 37.411602 2.441251
v 81.331451 35.270237 2.441251
vn -0.3012 -0.6276 -0.7179
vn -0.6962 0.2328 -0.6791
vn -0.7540 0.1899 -0.6289
vn -0.6853 0.3289 -0.6497
vn -0.7055 0.4942 -0.5079
vn -0.5626 0.4826 -0.6713
vn -0.5681 0.7136 -0.4099
vn -0.3329 0.6760 -0.6575
vn 0.7904 0.0026 -0.6125
vn 0.8235 0.1825 -0.5372
vn 0.7157 -0.2089 -0.6664
vn 0.8205 -0.1545 -0.5503
vn 0.6853 -0.3289 -0.6497
vn 0.6760 -0.4356 -0.5943
vn 0.5747 -0.4354 -0.6929
vn -0.4317 -0.8994 -0.0687
vn -0.9613 0.2421 -0.1312
vn -0.9670 0.2329 -0.1030
vn -0.8944 0.4293 -0.1256
vn -0.7566 0.6490 -0.0800
vn -0.7443 0.6557 -0.1264
vn -0.4414 0.8963 -0.0425
vn -0.4173 0.9045 -0.0875
vn 0.9726 0.2156 -0.0875
vn 0.9696 0.2409 -0.0439
vn 0.9748 -0.1835 -0.1266
vn 0.9819 -0.1714 -0.0805
vn 0.8944 -0.4293 -0.1256
vn 0.7929 -0.6007 -0.1025
vn 0.7839 -0.6068 -0.1313
vn -0.0000 -0.0000 1.0000
vn -0.4105 -0.8553 0.3162
vn -0.9677 0.2151 0.1317
vn -0.9676 0.2156 0.1311
vn -0.9683 0.2081 0.1384
vn -0.9683 0.2072 0.1393
vn -0.8979 0.4310 0.0890
vn -0.7271 0.6762 0.1189
vn -0.7303 0.6719 0.1231
vn -0.7241 0.6800 0.1150
vn -0.7238 0.6804 0.1146
vn -0.3736 0.9018 0.2171
vn -0.3570 0.9097 0.2120
vn 0.9390 0.2731 0.2091
vn 0.9311 0.2899 0.2214
vn 0.9822 -0.1497 0.1139
vn 0.9823 -0.1389 0.1256
vn 0.8979 -0.4310 0.0890
vn 0.7725 -0.6202 0.1364
vn 0.7729 -0.6196 0.1368
vn 0.7686 -0.6257 0.1331
vn 0.7681 -0.6265 0.1326
vn -0.0000 -0.0000 -1.0000
s 1
f 316//352 317//352 318//352
f 319//352 316//352 318//352
f 320//353 321//353 317//353
f 316//354 320//354 317//354
f 322//355 323//355 321//355
f 320//355 322//355 321//355
f 324//356 325//356 323//356
f 322//357 324//357 323//357
f 326//358 327//358 325//358
f 324//359 326//359 325//359
f 328//360 329//360 327//360
f 326//361 328//361 327//361
f 330//362 331//362 329//362
f 328//363 330//363 329//363
f 332//364 333//364 331//364
f 330//364 332//364 331//364
f 319//365 318//365 333//365
f 332//366 319//366 333//366
f 334//367 316//367 319//367
f 335//367 334//367 319//367
f 336//368 320//368 316//368
f 334//369 336//369 316//369
f 337//370 322//370 320//370
f 336//370 337//370 320//370
f 338//371 324//371 322//371
f 337//372 338//372 322//372
f 339//373 326//373 324//373
f 338//374 339//374 324//374
f 340//375 328//375 326//375
f 339//376 340//376 326//376
f 341//377 330//377 328//377
f 340//378 341//378 328//378
f 342//379 332//379 330//379
f 341//379 342//379 330//379
f 335//380 319//380 332//380
f 342//381 335//381 332//381
f 343//382 334//382 335//382
f 344//382 343//382 335//382
f 345//382 336//382 334//382
f 343//382 345//382 334//382
f 346//382 337//382 336//382
f 345//382 346//382 336//382
f 347//382 338//382 337//382
f 346//382 347//382 337//382
f 348//382 339//382 338//382
f 347//382 348//382 338//382
f 349//382 340//382 339//382
f 348//382 349//382 339//382
f 350//382 341//382 340//382
f 349//382 350//382 340//382
f 351//382 342//382 341//382
f 350//382 351//382 341//382
f 344//382 335//382 342//382
f 351//382 344//382 342//382
f 352//383 343//383 344//383
f 353//383 352//383 344//383
f 354//384 345//385 343//386
f 352//387 354//384 343//386
f 355//388 346//388 345//388
f 354//388 355//388 345//388
f 356//389 347//390 346//391
f 355//392 356//389 346//391
f 357//393 348//393 347//393
f 356//394 357//394 347//394
f 358//395 349//395 348//395
f 357//396 358//396 348//396
f 359//397 350//397 349//397
f 358//398 359//398 349//398
f 360//399 351//399 350//399
f 359//399 360//399 350//399
f 353//400 344//401 351//402
f 360//403 353//400 351//402
f 318//404 317//404 333//404
f 352//382 353//382 360//382
f 317//404 321//404 333//404
f 354//382 352//382 360//382
f 321//404 323//404 333//404
f 355//382 354//382 360//382
f 323//404 325//404 333//404
f 356//382 355//382 360//382
f 325//404 327//404 333//404
f 357//382 356//382 360//382
f 327//404 329//404 333//404
f 358//382 357//382 360//382
f 331//404 333//404 329//404
f 360//382 359//382 358//382
o costa
v 0.000000 60.986759 -12.000005
v 23.182102 34.951477 -12.000003
v 0.000000 48.741856 -12.000004
v 0.000000 60.986759 1.499995
v 0.000000 48.741856 1.499996
v 23.182102 34.951477 1.499997
v 115.316093 -0.000001 -12.000000
v 51.476154 20.447802 -12.000002
v 51.476154 20.447802 1.499998
v 115.316093 0.000000 1.500000
v 127.541924 24.075666 -12.000002
v 119.595871 6.538540 -12.000001
v 119.595871 6.538541 1.500000
v 127.541924 24.075666 1.499998
v 122.685158 32.099888 -12.000003
v 125.588661 31.308023 -12.000002
v 125.588661 31.308023 1.499998
v 122.685158 32.099888 1.499998
v 120.203987 28.034986 -12.000002
v 120.203987 28.034986 1.499998
v 118.989792 24.392412 -12.000002
v 118.989792 24.392412 1.499998
v 123.793770 22.069611 -12.000002
v 123.793770 22.069611 1.499998
v 114.608147 6.496284 -12.000001
v 114.608147 6.496285 1.500000
v 81.402649 25.764977 -12.000002
v 85.001038 37.923542 -12.000003
v 87.378693 36.615833 -12.000003
v 81.402649 25.764977 1.499998
v 87.378693 36.615833 1.499997
v 85.001038 37.923542 1.499997
v 79.889091 27.461874 -12.000002
v 79.889091 27.461874 1.499998
v 68.833008 33.168236 -12.000003
v 68.833008 33.168236 1.499997
v 71.805077 44.580963 -12.000004
v 74.063843 43.511021 -12.000003
v 74.063843 43.511021 1.499997
v 71.805077 44.580963 1.499997
v 66.693123 34.357063 -12.000003
v 66.693123 34.357063 1.499997
v 54.091572 40.895603 -12.000003
v 54.091572 40.895603 1.499997
v 62.056702 61.462288 -12.000005
v 64.434357 60.154583 -12.000005
v 64.434357 60.154583 1.499995
v 62.056702 61.462288 1.499995
v 51.832802 42.203312 -12.000003
v 51.832802 42.203312 1.499997
v 42.559959 46.958614 -12.000004
v 42.559959 46.958614 1.499996
v 54.448219 38.161304 -12.000003
v 41.252251 44.699848 -12.000004
v 41.252251 44.699848 1.499997
v 54.448219 38.161304 1.499997
v 48.741856 27.818521 -12.000002
v 48.741856 27.818521 1.499998
v 26.867462 39.587898 -12.000003
v 26.867462 39.587898 1.499997
v 19.615623 55.161514 -12.000004
v 32.930473 49.930679 -12.000004
v 32.930473 49.930679 1.499996
v 19.615623 55.161514 1.499996
v 17.951269 52.070568 -12.000004
v 17.951269 52.070568 1.499996
vn -0.0000 -0.0000 -1.0000
vn -0.0000 -0.0000 1.0000
vn -0.5113 -0.8594 -0.0000
vn -0.4562 -0.8899 -0.0000
vn -0.3050 -0.9523 -0.0000
vn 0.8367 -0.5477 -0.0000
vn 0.9109 -0.4127 -0.0000
vn 0.9654 0.2607 -0.0000
vn 0.2631 0.9648 -0.0000
vn -0.8536 0.5210 -0.0000
vn -0.9487 0.3162 -0.0000
vn -0.4353 -0.9003 -0.0000
vn -0.8613 0.5080 -0.0000
vn 0.5019 0.8649 -0.0000
vn 0.8759 -0.4824 -0.0000
vn 0.4819 0.8762 -0.0000
vn -0.8985 0.4390 -0.0000
vn 0.4586 0.8886 -0.0000
vn 0.8924 -0.4513 -0.0000
vn 0.4281 0.9037 -0.0000
vn -0.8944 0.4472 -0.0000
vn 0.4606 0.8876 -0.0000
vn 0.8810 -0.4731 -0.0000
vn -0.8833 0.4689 -0.0000
vn 0.4563 0.8898 -0.0000
vn -0.8654 0.5010 -0.0000
vn -0.4440 -0.8960 -0.0000
vn -0.8756 0.4831 -0.0000
vn 0.4738 0.8806 -0.0000
vn 0.8627 -0.5057 -0.0000
vn 0.3657 0.9308 -0.0000
vn -0.8805 0.4741 -0.0000
vn 0.4448 0.8956 -0.0000
vn -1.0000 -0.0000 -0.0000
s 1
f 361//405 362//405 363//405
f 364//406 365//406 366//406
f 362//405 367//405 368//405
f 366//406 369//406 370//406
f 367//405 371//405 372//405
f 370//406 373//406 374//406
f 371//405 375//405 376//405
f 374//406 377//406 378//406
f 371//405 379//405 375//405
f 374//406 378//406 380//406
f 371//405 381//405 379//405
f 374//406 380//406 382//406
f 371//405 383//405 381//405
f 374//406 382//406 384//406
f 367//405 383//405 371//405
f 370//406 374//406 384//406
f 367//405 385//405 383//405
f 370//406 384//406 386//406
f 362//405 385//405 367//405
f 366//406 370//406 386//406
f 387//405 388//405 389//405
f 390//406 391//406 392//406
f 387//405 393//405 388//405
f 390//406 392//406 394//406
f 387//405 395//405 393//405
f 390//406 394//406 396//406
f 395//405 397//405 398//405
f 396//406 399//406 400//406
f 395//405 401//405 397//405
f 396//406 400//406 402//406
f 387//405 401//405 395//405
f 390//406 396//406 402//406
f 387//405 403//405 401//405
f 390//406 402//406 404//406
f 385//405 403//405 387//405
f 386//406 390//406 404//406
f 403//405 405//405 406//405
f 404//406 407//406 408//406
f 403//405 409//405 405//405
f 404//406 408//406 410//406
f 403//405 411//405 409//405
f 404//406 410//406 412//406
f 385//405 411//405 403//405
f 386//406 404//406 412//406
f 411//405 413//405 414//405
f 412//406 415//406 416//406
f 385//405 413//405 411//405
f 386//406 412//406 416//406
f 385//405 417//405 413//405
f 386//406 416//406 418//406
f 362//405 417//405 385//405
f 366//406 386//406 418//406
f 362//405 419//405 417//405
f 366//406 418//406 420//406
f 361//405 419//405 362//405
f 364//406 366//406 420//406
f 419//405 421//405 422//405
f 420//406 423//406 424//406
f 419//405 425//405 421//405
f 420//406 424//406 426//406
f 419//405 361//405 425//405
f 420//406 426//406 364//406
f 363//407 362//407 366//407
f 363//407 366//407 365//407
f 362//408 368//408 369//408
f 362//408 369//408 366//408
f 368//409 367//409 370//409
f 368//409 370//409 369//409
f 367//410 372//410 373//410
f 367//410 373//410 370//410
f 372//411 371//411 374//411
f 372//411 374//411 373//411
f 371//412 376//412 377//412
f 371//412 377//412 374//412
f 376//413 375//413 378//413
f 376//413 378//413 377//413
f 375//414 379//414 380//414
f 375//414 380//414 378//414
f 379//415 381//415 382//415
f 379//415 382//415 380//415
f 381//416 383//416 384//416
f 381//416 384//416 382//416
f 383//417 385//417 386//417
f 383//417 386//417 384//417
f 385//418 387//418 390//418
f 385//418 390//418 386//418
f 387//419 389//419 391//419
f 387//419 391//419 390//419
f 389//420 388//420 392//420
f 389//420 392//420 391//420
f 388//421 393//421 394//421
f 388//421 394//421 392//421
f 393//422 395//422 396//422
f 393//422 396//422 394//422
f 395//423 398//423 399//423
f 395//423 399//423 396//423
f 398//424 397//424 400//424
f 398//424 400//424 399//424
f 397//425 401//425 402//425
f 397//425 402//425 400//425
f 401//426 403//426 404//426
f 401//426 404//426 402//426
f 403//427 406//427 407//427
f 403//427 407//427 404//427
f 406//420 405//420 408//420
f 406//420 408//420 407//420
f 405//428 409//428 410//428
f 405//428 410//428 408//428
f 409//429 411//429 412//429
f 409//429 412//429 410//429
f 411//430 414//430 415//430
f 411//430 415//430 412//430
f 414//431 413//431 416//431
f 414//431 416//431 415//431
f 413//432 417//432 418//432
f 413//432 418//432 416//432
f 417//433 419//433 420//433
f 417//433 420//433 418//433
f 419//434 422//434 423//434
f 419//434 423//434 420//434
f 422//435 421//435 424//435
f 422//435 424//435 423//435
f 421//436 425//436 426//436
f 421//436 426//436 424//436
f 425//437 361//437 364//437
f 425//437 364//437 426//437
f 361//438 363//438 365//438
f 361//438 365//438 364//438
o fondo
v -5.000000 90.000000 -13.000007
v 165.000000 -10.000001 -12.999999
v -5.000000 -10.000001 -12.999999
v -5.000000 90.000000 -12.000007
v -5.000000 -10.000001 -11.999999
v 165.000000 -10.000001 -11.999999
v 165.000000 90.000000 -13.000007
v 165.000000 90.000000 -12.000007
vn -0.0000 -0.0000 -1.0000
vn -0.0000 -0.0000 1.0000
vn -0.0000 -1.0000 -0.0000
vn 1.0000 -0.0000 -0.0000
vn -0.0000 1.0000 -0.0000
vn -1.0000 -0.0000 -0.0000
s 1
f 427//439 428//439 429//439
f 430//440 431//440 432//440
f 428//439 427//439 433//439
f 432//440 434//440 430//440
f 429//441 428//441 432//441
f 429//441 432//441 431//441
f 428//442 433//442 434//442
f 428//442 434//442 432//442
f 433//443 427//443 430//443
f 433//443 430//443 434//443
f 427//444 429//444 431//444
f 427//444 431//444 430//444
